<?xml version="1.0" encoding="UTF-8" standalone="no"?>
<!-- Created with Inkscape (http://www.inkscape.org/) -->
<svg xmlns:rdf="http://www.w3.org/1999/02/22-rdf-syntax-ns#" xmlns="http://www.w3.org/2000/svg" height="100%" viewBox="0 0 335 430" width="100%" version="1.1" xmlns:cc="http://creativecommons.org/ns#" xmlns:dc="http://purl.org/dc/elements/1.1/">
 <g stroke="#000000" transform="translate(-622.84375,-237.15625)">
  <rect stroke-linejoin="round" stroke-dasharray="none" fill-rule="evenodd" stroke-dashoffset="0" rx="21.62" ry="23.124" height="400" width="305" stroke-linecap="butt" stroke-miterlimit="4" y="252.14" x="637.86" stroke-width="30" class="file-line" fill="#ffffff"/>
  <path d="m892.88,321.5h-200.77c-7.5601,0-13.69,6.189-13.69,13.809,0,7.6348,6.1309,13.811,13.69,13.811h200.77c7.561,0,13.689-6.177,13.689-13.811,0.002-7.6188-6.1279-13.809-13.687-13.809z" class="file-line" fill="#000000"/>
  <path d="m892.88,387.23h-200.77c-7.5601,0-13.69,6.187-13.69,13.809,0,7.6328,6.1309,13.811,13.69,13.811h200.77c7.561,0,13.689-6.179,13.689-13.811,0.002-7.6208-6.1279-13.809-13.687-13.809z" class="file-line" fill="#000000"/>
  <path d="m892.88,452.97h-200.77c-7.5601,0-13.69,6.19-13.69,13.812,0,7.6318,6.1309,13.809,13.69,13.809h200.77c7.561,0,13.689-6.177,13.689-13.809,0.002-7.6218-6.1279-13.812-13.687-13.812z" class="file-line" fill="#000000"/>
  <path d="m892.88,518.7h-200.77c-7.5601,0-13.69,6.19-13.69,13.809,0,7.6368,6.1309,13.811,13.69,13.811h200.77c7.561,0,13.689-6.176,13.689-13.811,0.002-7.6188-6.1279-13.809-13.687-13.809z" class="file-line" fill="#000000"/>
 </g>
 <metadata>
  <rdf:RDF>
   <cc:Work rdf:about="">
    <dc:title/>
   </cc:Work>
  </rdf:RDF>
 </metadata>
</svg>
