<?xml version="1.0" encoding="UTF-8" standalone="no"?>
<!-- Created with Inkscape (http://www.inkscape.org/) -->

<svg
   xmlns:dc="http://purl.org/dc/elements/1.1/"
   xmlns:cc="http://creativecommons.org/ns#"
   xmlns:rdf="http://www.w3.org/1999/02/22-rdf-syntax-ns#"
   xmlns:svg="http://www.w3.org/2000/svg"
   xmlns="http://www.w3.org/2000/svg"
   xmlns:sodipodi="http://sodipodi.sourceforge.net/DTD/sodipodi-0.dtd"
   xmlns:inkscape="http://www.inkscape.org/namespaces/inkscape"
   width="100%"
   height="100%"
   id="svg2"
   version="1.1"
   inkscape:version="0.48.5 r10040"
   viewBox="0 0 33.416659 52.145157"
   sodipodi:docname="filter.svg">
  <defs
     id="defs4" />
  <sodipodi:namedview
     id="base"
     pagecolor="#ffffff"
     bordercolor="#666666"
     borderopacity="1.0"
     inkscape:pageopacity="0.0"
     inkscape:pageshadow="2"
     inkscape:zoom="7.160365"
     inkscape:cx="21.826153"
     inkscape:cy="21.26914"
     inkscape:document-units="px"
     inkscape:current-layer="layer1"
     showgrid="false"
     inkscape:window-width="1123"
     inkscape:window-height="594"
     inkscape:window-x="-13"
     inkscape:window-y="7"
     inkscape:window-maximized="0"
     fit-margin-top="0"
     fit-margin-left="0"
     fit-margin-right="0"
     fit-margin-bottom="0" />
  <metadata
     id="metadata7">
    <rdf:RDF>
      <cc:Work
         rdf:about="">
        <dc:format>image/svg+xml</dc:format>
        <dc:type
           rdf:resource="http://purl.org/dc/dcmitype/StillImage" />
        <dc:title></dc:title>
      </cc:Work>
    </rdf:RDF>
  </metadata>
  <g
     inkscape:label="Layer 1"
     inkscape:groupmode="layer"
     id="layer1"
     transform="matrix(0.16666663,0,0,0.16666663,205.45274,502.28528)">
    <g
       id="g4756"
       transform="matrix(1,0,0,1.005814,-1456.4042,-3322.9687)">
      <path
         style="fill:none;stroke:#000100;stroke-width:11.96526909;stroke-miterlimit:4;stroke-opacity:1;stroke-dasharray:none;marker-start:none"
         id="path3124-1"
         d="m 292.77382,380.04589 c -1.2722,-0.022 -2.3178,1.1895 -2.3353,2.7048 -0.018,1.5153 0.9986,2.7607 2.2708,2.7815 0.022,0 0.043,0 0.065,0 h 58.6236 c 1.2722,0.022 2.3177,-1.1894 2.3352,-2.7047 0.019,-1.5153 -0.9986,-2.7607 -2.2708,-2.7816 -0.022,0 -0.043,0 -0.065,0 h -58.6235 z"
         inkscape:connector-curvature="0" />
      <path
         style="fill:none;stroke:#000100;stroke-width:11.96526909;stroke-miterlimit:4;stroke-opacity:1;stroke-dasharray:none;marker-start:none"
         id="path3124"
         d="m 292.77282,406.01218 c -1.2722,-0.022 -2.31778,1.18943 -2.33529,2.70475 -0.0184,1.51532 0.9986,2.76072 2.2708,2.78156 0.0221,0 0.0433,0 0.0654,0 h 58.62355 c 1.2722,0.022 2.31779,-1.18943 2.33529,-2.70475 0.0184,-1.51532 -0.9986,-2.76072 -2.2708,-2.78156 -0.0221,0 -0.0433,0 -0.0654,0 h -58.62355 z"
         inkscape:connector-curvature="0" />
      <path
         style="fill:none;stroke:#000000;stroke-width:11.96526909;stroke-miterlimit:4;stroke-opacity:1;stroke-dasharray:none;marker-start:none"
         id="path3122"
         d="m 292.77282,432.14462 c -1.2722,-0.022 -2.31778,1.18943 -2.33529,2.70475 -0.0184,1.51532 0.9986,2.76072 2.2708,2.78156 0.0221,0 0.0433,0 0.0654,0 h 58.62355 c 1.2722,0.022 2.31779,-1.18943 2.33529,-2.70475 0.0184,-1.51532 -0.9986,-2.76072 -2.2708,-2.78156 -0.0221,0 -0.0433,0 -0.0654,0 h -58.62355 z"
         inkscape:connector-curvature="0" />
      <path
         style="fill:none;stroke:#000100;stroke-width:17.94790268;stroke-miterlimit:4;stroke-opacity:1;stroke-dasharray:none;marker-start:none"
         id="path35963"
         d="m 242.92663,461.32526 h 162.0008 l -65.83301,78.41377 c -0.8641,1.02924 -1.34958,2.42496 -1.34958,3.88103 v 30.17476 l -27.63654,24.68844 v -54.8632 c 0,-1.45607 -0.48549,-2.85179 -1.34959,-3.88103 l -65.83208,-78.41377 z"
         inkscape:connector-curvature="0" />
      <rect
         rx="10.65802"
         y="316.45029"
         x="259.20828"
         height="144.00003"
         width="126.00003"
         id="rect4732"
         style="fill:none;stroke:#000100;stroke-width:17.94790268;stroke-linecap:round;stroke-linejoin:bevel;stroke-miterlimit:4;stroke-opacity:1;stroke-dasharray:none;stroke-dashoffset:0" />
    </g>
  </g>
</svg>
