<?xml version="1.0" encoding="UTF-8" standalone="no"?>
<!-- Created with Inkscape (http://www.inkscape.org/) -->
<svg xmlns:rdf="http://www.w3.org/1999/02/22-rdf-syntax-ns#" xmlns="http://www.w3.org/2000/svg" height="100%" viewBox="0 0 33.416659 52.145157" width="100%" version="1.1" xmlns:cc="http://creativecommons.org/ns#" xmlns:dc="http://purl.org/dc/elements/1.1/">
<metadata>
<rdf:RDF>
<cc:Work rdf:about="">
<dc:format>image/svg+xml</dc:format>
<dc:type rdf:resource="http://purl.org/dc/dcmitype/StillImage"/>
<dc:title/>
</cc:Work>
</rdf:RDF>
</metadata>
<g transform="matrix(0.16666663,0,0,0.16666663,205.45274,502.28528)">
<g stroke-miterlimit="4" fill="none" stroke-dasharray="none" transform="matrix(1,0,0,1.005814,-1456.4042,-3322.9687)">
<path style="marker-start:none;" d="m293,380c-1.27-0.022-2.32,1.19-2.34,2.7-0.018,1.52,0.999,2.76,2.27,2.78h0.065,58.6c1.27,0.022,2.32-1.19,2.34-2.7,0.019-1.52-0.999-2.76-2.27-2.78h-0.065-58.6z" stroke-width="11.96526909"/>
<path style="marker-start:none;" d="m293,406c-1.27-0.022-2.32,1.19-2.34,2.7-0.0184,1.52,0.999,2.76,2.27,2.78h0.0654,58.6c1.27,0.022,2.32-1.19,2.34-2.7,0.0184-1.52-0.999-2.76-2.27-2.78h-0.0654-58.6z" stroke-width="11.96526909"/>
<path style="marker-start:none;" d="m293,432c-1.27-0.022-2.32,1.19-2.34,2.7-0.0184,1.52,0.999,2.76,2.27,2.78h0.0654,58.6c1.27,0.022,2.32-1.19,2.34-2.7,0.0184-1.52-0.999-2.76-2.27-2.78h-0.0654-58.6z" stroke-width="11.96526909"/>
<path style="marker-start:none;" d="m243,461h162l-65.8,78.4c-0.864,1.03-1.35,2.42-1.35,3.88v30.2l-27.6,24.7v-54.9c0-1.46-0.485-2.85-1.35-3.88l-65.8-78.4z" stroke-width="17.94790268"/>
<rect stroke-linejoin="bevel" rx="10.7" stroke-dashoffset="0" height="144" width="126" stroke-linecap="round" y="316" x="259" stroke-width="17.9"/>
</g>
</g>
</svg>
