<?xml version="1.0" encoding="UTF-8" standalone="no"?>
<!-- Created with Inkscape (http://www.inkscape.org/) -->
<svg xmlns:rdf="http://www.w3.org/1999/02/22-rdf-syntax-ns#" xmlns="http://www.w3.org/2000/svg" height="100%" viewBox="0 0 15 20" width="100%" version="1.1" xmlns:cc="http://creativecommons.org/ns#" xmlns:dc="http://purl.org/dc/elements/1.1/">
 <g transform="translate(-2.2159999,2.196)">
  <g transform="matrix(1.1217469,0,0,1.1233715,-0.2697912,-2.1965065)">
   <path d="m2.44,0.043c0.14-0.071,0.304-0.051,0.425,0.044l10.777,8.502c0.094,0.074,0.152,0.191,0.152,0.312,0,0.118-0.059,0.24-0.152,0.314l-10.778,8.503c-0.072,0.056-0.162,0.086-0.25,0.086l-0.175-0.04c-0.137-0.065-0.223-0.206-0.223-0.362v-16.999c0-0.154,0.086-0.297,0.224-0.36z"/>
   <path d="m12.616,0.034h2.656c0.175,0,0.316,0.181,0.316,0.399v16.935c0,0.222-0.142,0.403-0.316,0.403h-2.656c-0.174,0-0.316-0.182-0.316-0.403v-16.934c0-0.219,0.143-0.4,0.316-0.4z"/>
  </g>
 </g>
 <metadata>
  <rdf:RDF>
   <cc:Work rdf:about="">
    <dc:title/>
   </cc:Work>
  </rdf:RDF>
 </metadata>
</svg>
