<?xml version="1.0" encoding="UTF-8" standalone="no"?>
<!-- Created with Inkscape (http://www.inkscape.org/) -->
<svg id="svg2" xmlns:rdf="http://www.w3.org/1999/02/22-rdf-syntax-ns#" xmlns="http://www.w3.org/2000/svg" height="100%" viewBox="0 0 60 30" width="100%" version="1.1" xmlns:cc="http://creativecommons.org/ns#" xmlns:dc="http://purl.org/dc/elements/1.1/">
 <metadata id="metadata7">
  <rdf:RDF>
   <cc:Work rdf:about="">
    <dc:format>image/svg+xml</dc:format>
    <dc:type rdf:resource="http://purl.org/dc/dcmitype/StillImage"/>
    <dc:title/>
   </cc:Work>
  </rdf:RDF>
 </metadata>
 <g id="layer1" transform="matrix(0.99986585,0,0,0.99974434,888.38797,33167.84)">
  <g id="g3189">
   <g id="layer1-3" transform="translate(-116.64956,-4.5401548)">
    <g id="layer1-9" transform="matrix(-1,0,0,1,-1306.8435,-33796.274)">
     <g id="layer1-4" transform="matrix(0.0590745,0,0,0.0590745,-567.20564,610.7472)">
      <path id="path2989-7" style="stroke-linejoin:round;fill-rule:nonzero;stroke-dashoffset:0;stroke:#000000;stroke-linecap:round;stroke-miterlimit:4;stroke-dasharray:none;stroke-width:6.94123602;fill:#000000;" transform="matrix(0.8446071,0.90116545,-1.0012987,0.69273714,520.5422,299.2755)" d="M303.87,235.71-109.6,385.8-32.842-47.321z"/>
     </g>
    </g>
   </g>
   <g id="layer1-3-8" transform="translate(-86.649562,-4.5401548)">
    <g id="layer1-9-7" transform="matrix(-1,0,0,1,-1306.8435,-33796.274)">
     <g id="layer1-4-4" transform="matrix(0.0590745,0,0,0.0590745,-567.20564,610.7472)">
      <path id="path2989-7-2" style="stroke-linejoin:round;fill-rule:nonzero;stroke-dashoffset:0;stroke:#000000;stroke-linecap:round;stroke-miterlimit:4;stroke-dasharray:none;stroke-width:6.94123602;fill:#000000;" transform="matrix(0.8446071,0.90116545,-1.0012987,0.69273714,520.5422,299.2755)" d="M303.87,235.71-109.6,385.8-32.842-47.321z"/>
     </g>
    </g>
   </g>
  </g>
 </g>
</svg>
