<?xml version="1.0" encoding="UTF-8" standalone="no"?>
<!-- Generator: Adobe Illustrator 16.0.0, SVG Export Plug-In . SVG Version: 6.00 Build 0)  -->
<svg id="Capa_1" xmlns:rdf="http://www.w3.org/1999/02/22-rdf-syntax-ns#" xmlns="http://www.w3.org/2000/svg" xml:space="preserve" height="100%" viewBox="0 0 385 360" width="100%" version="1.1" y="0px" x="0px" xmlns:cc="http://creativecommons.org/ns#" xmlns:dc="http://purl.org/dc/elements/1.1/"><metadata id="metadata3101"><rdf:RDF><cc:Work rdf:about=""><dc:format>image/svg+xml</dc:format><dc:type rdf:resource="http://purl.org/dc/dcmitype/StillImage"/><dc:title/></cc:Work></rdf:RDF></metadata><path id="path3214" d="M364.68,0,20.339,0c-11.231,0-20.339,9.0825-20.339,20.301v319.39c0,11.213,9.1016,20.304,20.339,20.304h344.33c11.23,0.01,20.33-9.08,20.33-20.29v-319.4c0.01-11.218-9.09-20.301-20.32-20.301z"/><path id="path3212" fill="#ffffff" d="m72.533,335.64-56.258,0,0-47.718,56.258,0z"/><path id="path3210" fill="#ffffff" d="m72.533,275.74-56.258,0,0-60.908,56.258,0z"/><path id="path3208" fill="#ffffff" d="m72.533,202.66-56.258,0,0-56.845,56.258,0z"/><path id="path3206" fill="#ffffff" d="m72.533,133.64-56.258,0,0-49.726,56.258,0z"/><path id="path3204" fill="#ffffff" d="m151.84,335.64-67.108,0,0-47.718,67.101,0,0,47.718z"/><path id="path3202" fill="#ffffff" d="m151.84,275.74-67.108,0,0-60.908,67.101,0,0,60.908z"/><path id="path3200" fill="#ffffff" d="m151.84,202.66-67.108,0,0-56.845,67.101,0,0,56.845z"/><path id="path3198" fill="#ffffff" d="m151.84,133.64-67.108,0,0-49.726,67.101,0,0,49.726z"/><path id="path3196" fill="#ffffff" d="m225.04,335.64-61.006,0,0-47.718,61.006,0z"/><path id="path3194" fill="#ffffff" d="m225.04,275.74-61.006,0,0-60.908,61.006,0z"/><path id="path3192" fill="#ffffff" d="m225.04,202.66-61.006,0,0-56.845,61.006,0z"/><path id="path3190" fill="#ffffff" d="m225.04,133.64-61.006,0,0-49.726,61.006,0z"/><path id="path3188" fill="#ffffff" d="m294.18,335.64-56.939,0,0-47.718,56.939,0z"/><path id="path3186" fill="#ffffff" d="m294.18,275.74-56.939,0,0-60.908,56.939,0z"/><path id="path3184" fill="#ffffff" d="m294.18,202.66-56.939,0,0-56.845,56.939,0z"/><path id="path3182" fill="#ffffff" d="m294.18,133.64-56.939,0,0-49.726,56.939,0z"/><path id="path3180" fill="#ffffff" d="m368.75,335.64-62.358,0,0-47.718,62.358,0z"/><path id="path3178" fill="#ffffff" d="m368.75,275.74-62.358,0,0-60.908,62.358,0z"/><path id="path3176" fill="#ffffff" d="m368.75,202.66-62.358,0,0-56.845,62.358,0z"/><path id="path3174" fill="#ffffff" d="m368.75,133.64-62.358,0,0-49.726,62.358,0z"/></svg>
