<svg xmlns="http://www.w3.org/2000/svg" viewBox="0 0 525.938 525.938"><path d="M505.02 160.47C491.078 128 472.348 100.01 448.84 76.5s-51.398-42.135-83.672-55.88S298.828 0 262.968 0 193.044 6.873 160.77 20.62 100.606 52.99 77.098 76.5s-42.234 51.498-56.18 83.97S0 227.01 0 262.67s6.973 69.727 20.918 102.2 32.672 60.462 56.18 83.97 51.398 42.234 83.672 56.18 66.34 20.918 102.2 20.918 69.925-6.973 102.198-20.918c32.27-13.942 60.164-32.672 83.672-56.18 23.508-23.508 42.234-51.498 56.18-83.97 13.946-32.477 20.918-66.54 20.918-102.2s-6.973-69.727-20.918-102.2zM402.223 302.415h-99.21v99.81h-80.087v-99.81h-99.21v-79.488h99.21v-99.81h80.086v99.81h99.21v79.488z" fill="#010002"/></svg>