<svg xmlns="http://www.w3.org/2000/svg" viewBox="0 0 612 612"><path d="M587.826 186.966c-16.116-37.332-37.944-69.768-65.484-97.308s-59.976-49.368-97.308-65.484S348.024 0 306 0c-28.152 0-55.284 3.672-81.396 11.016s-50.49 17.646-73.134 30.906-43.248 29.172-61.812 47.736-34.476 39.168-47.736 61.812c-13.26 22.646-23.562 47.022-30.906 73.134C3.672 250.716 0 277.848 0 306s3.672 55.284 11.016 81.396c7.344 26.11 17.646 50.487 30.906 73.134 13.26 22.644 29.172 43.25 47.736 61.812 18.564 18.564 39.168 34.478 61.812 47.736 22.644 13.26 47.022 23.56 73.134 30.906C250.716 608.328 277.848 612 306 612s55.284-3.672 81.396-11.016c26.11-7.346 50.488-17.646 73.135-30.906 22.647-13.26 43.25-29.172 61.815-47.736 18.564-18.563 34.478-39.168 47.736-61.812 13.26-22.646 23.56-47.023 30.906-73.135C608.328 361.285 612 334.152 612 306c0-42.024-8.058-81.702-24.174-119.034zM468.18 391.68c2.04 2.04 3.063 4.284 3.063 6.732s-1.02 4.488-3.063 6.12l-59.976 60.588c-1.63 1.632-3.876 2.448-6.732 2.448-2.854 0-4.895-.816-6.12-2.448l-86.292-86.292-85.68 86.292c-2.448 1.632-4.692 2.448-6.732 2.448-1.632 0-3.672-.816-6.12-2.448l-59.976-60.588c-2.04-1.226-3.06-3.267-3.06-6.12 0-2.448 1.02-4.692 3.06-6.732l85.68-85.68-85.68-85.68c-2.04-2.04-3.06-4.284-3.06-6.732 0-2.856 1.02-4.896 3.06-6.12l59.976-60.588c1.632-1.632 3.672-2.448 6.12-2.448s4.692.816 6.732 2.448l85.68 86.292 86.292-86.292c1.635-1.632 3.675-2.448 6.12-2.448 2.448 0 4.692.816 6.732 2.448l59.976 60.588c2.04 1.632 3.063 3.672 3.063 6.12s-1.02 4.692-3.063 6.732L382.5 306l85.68 85.68z" fill="#010002"/></svg>