<svg xmlns="http://www.w3.org/2000/svg" viewBox="0 0 335 430"><g stroke="#000" transform="translate(-622.844 -237.156)"><rect stroke-linejoin="round" fill-rule="evenodd" rx="21.62" ry="23.124" height="400" width="305" y="252.14" x="637.86" stroke-width="30" class="file-line" fill="#fff"/><path d="M892.88 321.5H692.11c-7.56 0-13.69 6.19-13.69 13.81 0 7.634 6.13 13.81 13.69 13.81h200.77c7.56 0 13.69-6.177 13.69-13.81 0-7.62-6.13-13.81-13.688-13.81zm0 65.73H692.11c-7.56 0-13.69 6.187-13.69 13.81 0 7.632 6.13 13.81 13.69 13.81h200.77c7.56 0 13.69-6.18 13.69-13.81 0-7.622-6.13-13.81-13.688-13.81zm0 65.74H692.11c-7.56 0-13.69 6.19-13.69 13.812 0 7.632 6.13 13.81 13.69 13.81h200.77c7.56 0 13.69-6.178 13.69-13.81 0-7.622-6.13-13.812-13.688-13.812zm0 65.73H692.11c-7.56 0-13.69 6.19-13.69 13.81 0 7.636 6.13 13.81 13.69 13.81h200.77c7.56 0 13.69-6.176 13.69-13.81 0-7.62-6.13-13.81-13.688-13.81z" class="file-line"/></g></svg>