<svg xmlns="http://www.w3.org/2000/svg" viewBox="0 0 33.416659 52.145157"><g fill="none" transform="matrix(.16667 0 0 .16764 -37.28 -51.543)"><path d="M293 380c-1.27-.022-2.32 1.19-2.34 2.7-.018 1.52 1 2.76 2.27 2.78h58.665c1.27.022 2.32-1.19 2.34-2.7.02-1.52-1-2.76-2.27-2.78H293zM293 406c-1.27-.022-2.32 1.19-2.34 2.7-.018 1.52 1 2.76 2.27 2.78h58.665c1.27.022 2.32-1.19 2.34-2.7.02-1.52-1-2.76-2.27-2.78H293zM293 432c-1.27-.022-2.32 1.19-2.34 2.7-.018 1.52 1 2.76 2.27 2.78h58.665c1.27.022 2.32-1.19 2.34-2.7.02-1.52-1-2.76-2.27-2.78H293zM243 461h162l-65.8 78.4c-.864 1.03-1.35 2.42-1.35 3.88v30.2l-27.6 24.7v-54.9c0-1.46-.485-2.85-1.35-3.88L243.1 461z"/><rect rx="10.7" height="144" width="126" y="316" x="259"/></g></svg>