<svg xmlns="http://www.w3.org/2000/svg" viewBox="0 0 290.003 290.003"><path d="M87.728 0C77.993 0 70 7.996 70 17.73v122.273H45c-2.76 0-5 2.24-4.998 5.002 0 1.325.527 2.596 1.463 3.533L120 227.073v57.93c0 2.762 2.24 5 5 5 1.082 0 2.134-.35 3-1l40-30c1.26-.944 2-2.426 2-4v-27.93l78.535-78.535c1.952-1.953 1.95-5.12-.002-7.072-.937-.937-2.208-1.463-3.533-1.463h-25V49.55c0-1.263-.477-2.478-1.336-3.403L177.302 1.6C176.356.58 175.03 0 173.638 0h-85.91zm0 10h77.73v39.547c0 2.76 2.238 5 5 5H210v85.457H80V17.73c0-4.367 3.36-7.73 7.726-7.73zm87.73 4.307l28.077 30.24h-28.078v-30.24zm-87.73 3.195c-1.38 0-2.5 1.12-2.5 2.5V67.73c-.02 1.38 1.084 2.515 2.465 2.534 1.38.02 2.516-1.084 2.535-2.465V22.5H110c1.382.02 2.517-1.084 2.536-2.465.02-1.38-1.084-2.516-2.465-2.535H87.73zm25.455 74.092c-1.38-.02-2.516 1.084-2.535 2.465-.02 1.38 1.084 2.513 2.465 2.532h63.708c1.384.02 2.52-1.084 2.538-2.465.02-1.382-1.084-2.517-2.465-2.536h-63.707zm0 23.816c-1.38-.02-2.516 1.084-2.535 2.465-.02 1.38 1.084 2.516 2.465 2.535h63.708c1.384.02 2.52-1.084 2.538-2.465.02-1.38-1.084-2.516-2.465-2.535h-63.707zm-56.11 34.594H232.93l-71.464 71.463c-.938.938-1.465 2.21-1.465 3.537v27.5l-30 22.5v-50c0-1.327-.524-2.6-1.462-3.537l-71.462-71.463z"/></svg>