<svg xmlns="http://www.w3.org/2000/svg" width="438.533" height="438.533" viewBox="0 0 438.533 438.533"><path d="M409.133 109.203c-19.608-33.592-46.205-60.19-79.798-79.796C295.735 9.8 259.058 0 219.273 0c-39.78 0-76.47 9.8-110.063 29.407-33.595 19.604-60.192 46.2-79.8 79.796C9.8 142.8 0 179.49 0 219.267c0 39.78 9.804 76.463 29.407 110.062 19.607 33.59 46.204 60.186 79.8 79.795 33.596 19.605 70.282 29.407 110.062 29.407s76.47-9.802 110.062-29.407c33.593-19.602 60.19-46.206 79.795-79.798 19.602-33.597 29.402-70.285 29.402-110.063 0-39.782-9.8-76.472-29.4-110.064zM347.18 237.54c0 4.947-1.812 9.235-5.43 12.846-3.613 3.614-7.897 5.428-12.846 5.428h-219.27c-4.948 0-9.23-1.813-12.847-5.428-3.616-3.61-5.424-7.898-5.424-12.847v-36.55c0-4.95 1.81-9.23 5.424-12.848 3.617-3.617 7.898-5.426 12.847-5.426h219.27c4.948 0 9.232 1.808 12.847 5.425 3.62 3.616 5.43 7.9 5.43 12.848v36.546z"/></svg>