<svg style="display: none;"><defs> <filter inkscape:label="Drop Shadow" id="and-filter3855" color-interpolation-filters="sRGB"> <feFlood flood-opacity="0.7" flood-color="rgb(0,0,0)" result="flood" id="and-feFlood3857"/> <feComposite in="flood" in2="SourceGraphic" operator="in" result="composite1" id="and-feComposite3859"/> <feGaussianBlur stdDeviation="2" result="blur" id="and-feGaussianBlur3861"/> <feOffset dx="3" dy="3" result="offset" id="and-feOffset3863"/> <feComposite in="SourceGraphic" in2="offset" operator="over" result="composite2" id="and-feComposite3865"/> </filter>  <filter id="or-filter3479" color-interpolation-filters="sRGB"> <feFlood flood-color="rgb(0,0,0)" result="flood" flood-opacity="0.5"/> <feComposite operator="in" result="composite1" in2="SourceGraphic" in="flood"/> <feGaussianBlur stdDeviation="3" result="blur"/> <feOffset result="offset" dx="4" dy="4"/> <feComposite operator="over" result="fbSourceGraphic" in2="offset" in="SourceGraphic"/> <feColorMatrix values="0 0 0 -1 0 0 0 0 -1 0 0 0 0 -1 0 0 0 0 1 0" result="fbSourceGraphicAlpha" in="fbSourceGraphic"/> <feFlood in="fbSourceGraphic" flood-opacity="0.5" result="flood" flood-color="rgb(0,0,0)"/> <feComposite operator="in" result="composite1" in2="fbSourceGraphic" in="flood"/> <feGaussianBlur stdDeviation="3" result="blur"/> <feOffset result="offset" dx="4" dy="4"/> <feComposite operator="over" result="composite2" in2="offset" in="fbSourceGraphic"/> </filter>  <filter inkscape:label="Drop Shadow" id="svg-defs-and-filter3855" color-interpolation-filters="sRGB"> <feFlood flood-opacity="0.7" flood-color="rgb(0,0,0)" result="flood" id="svg-defs-and-feFlood3857"/> <feComposite in="flood" in2="SourceGraphic" operator="in" result="composite1" id="svg-defs-and-feComposite3859"/> <feGaussianBlur stdDeviation="2" result="blur" id="svg-defs-and-feGaussianBlur3861"/> <feOffset dx="3" dy="3" result="offset" id="svg-defs-and-feOffset3863"/> <feComposite in="SourceGraphic" in2="offset" operator="over" result="composite2" id="svg-defs-and-feComposite3865"/> </filter> <filter id="svg-defs-or-filter3479" color-interpolation-filters="sRGB"> <feFlood flood-color="rgb(0,0,0)" result="flood" flood-opacity="0.5"/> <feComposite operator="in" result="composite1" in2="SourceGraphic" in="flood"/> <feGaussianBlur stdDeviation="3" result="blur"/> <feOffset result="offset" dx="4" dy="4"/> <feComposite operator="over" result="fbSourceGraphic" in2="offset" in="SourceGraphic"/> <feColorMatrix values="0 0 0 -1 0 0 0 0 -1 0 0 0 0 -1 0 0 0 0 1 0" result="fbSourceGraphicAlpha" in="fbSourceGraphic"/> <feFlood in="fbSourceGraphic" flood-opacity="0.5" result="flood" flood-color="rgb(0,0,0)"/> <feComposite operator="in" result="composite1" in2="fbSourceGraphic" in="flood"/> <feGaussianBlur stdDeviation="3" result="blur"/> <feOffset result="offset" dx="4" dy="4"/> <feComposite operator="over" result="composite2" in2="offset" in="fbSourceGraphic"/> </filter> </defs><symbol viewBox="0 0 525.938 525.938" id="icon-add34"><title>add34</title> <g> <g> <path style="fill:#010002;" d="M505.02,160.471c-13.942-32.472-32.672-60.463-56.18-83.971s-51.398-42.135-83.672-55.881
			S298.828,0,262.969,0S193.043,6.873,160.77,20.619S100.606,52.992,77.098,76.5s-42.234,51.498-56.18,83.971S0,227.01,0,262.67
			s6.973,69.727,20.918,102.199s32.672,60.463,56.18,83.971s51.398,42.234,83.672,56.18s66.34,20.918,102.199,20.918
			s69.926-6.973,102.199-20.918c32.271-13.942,60.164-32.672,83.672-56.18c23.508-23.508,42.234-51.498,56.18-83.971
			c13.946-32.476,20.918-66.539,20.918-102.199S518.965,192.943,505.02,160.471z M402.223,302.414h-99.211v99.809h-80.086v-99.809
			h-99.211v-79.488h99.211v-99.809h80.086v99.809h99.211V302.414z"/> </g> </g>                </symbol><symbol viewBox="0 0 120 50" id="icon-and"><title>and</title>  <sodipodi:namedview id="and-base" pagecolor="#ffffff" bordercolor="#666666" borderopacity="1.0" inkscape:pageopacity="0.0" inkscape:pageshadow="2" inkscape:zoom="0.4" inkscape:cx="4e+002" inkscape:cy="5e+002" inkscape:document-units="px" inkscape:current-layer="layer1" showgrid="false" fit-margin-top="0" fit-margin-left="0" fit-margin-right="0" fit-margin-bottom="0" inkscape:window-width="1016" inkscape:window-height="662" inkscape:window-x="156" inkscape:window-y="156" inkscape:window-maximized="0" borderlayer="false"/> <metadata id="and-metadata7"> <rdf:RDF> <cc:Work rdf:about=""> <dc:format>image/svg+xml</dc:format> <dc:type rdf:resource="http://purl.org/dc/dcmitype/StillImage"/> <dc:title/> </cc:Work> </rdf:RDF> </metadata> <g inkscape:label="Layer 1" inkscape:groupmode="layer" id="and-layer1" transform="translate(200,-1000)"> <rect style="fill:none;stroke:#000000;stroke-width:0.9;stroke-linecap:round;stroke-linejoin:bevel;stroke-miterlimit:4;stroke-opacity:1;stroke-dasharray:none;stroke-dashoffset:0" id="and-rect2985" width="120" height="50" x="-200" y="2e+002" rx="3"/> <text xml:space="preserve" style="font-size:40px;font-style:normal;font-variant:normal;font-weight:bold;font-stretch:normal;text-align:start;line-height:125%;letter-spacing:0px;word-spacing:0px;writing-mode:lr-tb;text-anchor:start;fill:#000000;fill-opacity:1;stroke:none;filter:url(#and-filter3855);font-family:Sans;-inkscape-font-specification:Sans Bold" x="-183.0647" y="238.10832" id="and-text2987" sodipodi:linespacing="125%"><tspan sodipodi:role="line" id="and-tspan2989" x="-183.0647" y="238.10832">AND</tspan></text> </g> </symbol><symbol viewBox="0 0 612 612" id="icon-cancel28"><title>cancel28</title> <g> <g> <path d="M587.826,186.966c-16.116-37.332-37.944-69.768-65.484-97.308s-59.976-49.368-97.308-65.484
			S348.024,0,306,0c-28.152,0-55.284,3.672-81.396,11.016s-50.49,17.646-73.134,30.906s-43.248,29.172-61.812,47.736
			s-34.476,39.168-47.736,61.812c-13.26,22.646-23.562,47.022-30.906,73.134C3.672,250.716,0,277.848,0,306
			s3.672,55.284,11.016,81.396c7.344,26.11,17.646,50.487,30.906,73.134c13.26,22.644,29.172,43.249,47.736,61.812
			c18.564,18.564,39.168,34.478,61.812,47.736c22.644,13.26,47.022,23.561,73.134,30.906C250.716,608.328,277.848,612,306,612
			s55.284-3.672,81.396-11.016c26.111-7.346,50.488-17.646,73.135-30.906c22.644-13.259,43.249-29.172,61.812-47.736
			c18.564-18.563,34.478-39.168,47.736-61.812c13.26-22.646,23.561-47.023,30.906-73.135C608.328,361.284,612,334.152,612,306
			C612,263.976,603.942,224.298,587.826,186.966z M468.18,391.68c2.04,2.04,3.063,4.284,3.063,6.732s-1.021,4.488-3.063,6.12
			l-59.976,60.588c-1.631,1.632-3.876,2.448-6.732,2.448c-2.854,0-4.895-0.816-6.12-2.448l-86.292-86.292l-85.68,86.292
			c-2.448,1.632-4.692,2.448-6.732,2.448c-1.632,0-3.672-0.816-6.12-2.448l-59.976-60.588c-2.04-1.226-3.06-3.267-3.06-6.12
			c0-2.448,1.02-4.692,3.06-6.732l85.68-85.68l-85.68-85.68c-2.04-2.04-3.06-4.284-3.06-6.732c0-2.856,1.02-4.896,3.06-6.12
			l59.976-60.588c1.632-1.632,3.672-2.448,6.12-2.448s4.692,0.816,6.732,2.448l85.68,86.292l86.292-86.292
			c1.635-1.632,3.675-2.448,6.12-2.448c2.448,0,4.692,0.816,6.732,2.448l59.976,60.588c2.04,1.632,3.063,3.672,3.063,6.12
			s-1.021,4.692-3.063,6.732L382.5,306L468.18,391.68z"/> </g> </g>                </symbol><symbol viewBox="0 0 335 430" id="icon-file"><title>file</title> <g stroke="#000000" transform="translate(-622.84375,-237.15625)"> <rect stroke-linejoin="round" stroke-dasharray="none" fill-rule="evenodd" stroke-dashoffset="0" rx="21.62" ry="23.124" height="400" width="305" stroke-linecap="butt" stroke-miterlimit="4" y="252.14" x="637.86" stroke-width="30" class="file-line" fill="#ffffff"/> <path d="m892.88,321.5h-200.77c-7.5601,0-13.69,6.189-13.69,13.809,0,7.6348,6.1309,13.811,13.69,13.811h200.77c7.561,0,13.689-6.177,13.689-13.811,0.002-7.6188-6.1279-13.809-13.687-13.809z" class="file-line" fill="#000000"/> <path d="m892.88,387.23h-200.77c-7.5601,0-13.69,6.187-13.69,13.809,0,7.6328,6.1309,13.811,13.69,13.811h200.77c7.561,0,13.689-6.179,13.689-13.811,0.002-7.6208-6.1279-13.809-13.687-13.809z" class="file-line" fill="#000000"/> <path d="m892.88,452.97h-200.77c-7.5601,0-13.69,6.19-13.69,13.812,0,7.6318,6.1309,13.809,13.69,13.809h200.77c7.561,0,13.689-6.177,13.689-13.809,0.002-7.6218-6.1279-13.812-13.687-13.812z" class="file-line" fill="#000000"/> <path d="m892.88,518.7h-200.77c-7.5601,0-13.69,6.19-13.69,13.809,0,7.6368,6.1309,13.811,13.69,13.811h200.77c7.561,0,13.689-6.176,13.689-13.811,0.002-7.6188-6.1279-13.809-13.687-13.809z" class="file-line" fill="#000000"/> </g> <metadata> <rdf:RDF> <cc:Work rdf:about=""> <dc:title/> </cc:Work> </rdf:RDF> </metadata> </symbol><symbol viewBox="0 0 33.416659 52.145157" id="icon-filter"><title>filter</title> <metadata> <rdf:RDF> <cc:Work rdf:about=""> <dc:format>image/svg+xml</dc:format> <dc:type rdf:resource="http://purl.org/dc/dcmitype/StillImage"/> <dc:title/> </cc:Work> </rdf:RDF> </metadata> <g transform="matrix(0.16666663,0,0,0.16666663,205.45274,502.28528)"> <g stroke-miterlimit="4" fill="none" stroke-dasharray="none" transform="matrix(1,0,0,1.005814,-1456.4042,-3322.9687)"> <path style="marker-start:none;" d="m293,380c-1.27-0.022-2.32,1.19-2.34,2.7-0.018,1.52,0.999,2.76,2.27,2.78h0.065,58.6c1.27,0.022,2.32-1.19,2.34-2.7,0.019-1.52-0.999-2.76-2.27-2.78h-0.065-58.6z" stroke-width="11.96526909"/> <path style="marker-start:none;" d="m293,406c-1.27-0.022-2.32,1.19-2.34,2.7-0.0184,1.52,0.999,2.76,2.27,2.78h0.0654,58.6c1.27,0.022,2.32-1.19,2.34-2.7,0.0184-1.52-0.999-2.76-2.27-2.78h-0.0654-58.6z" stroke-width="11.96526909"/> <path style="marker-start:none;" d="m293,432c-1.27-0.022-2.32,1.19-2.34,2.7-0.0184,1.52,0.999,2.76,2.27,2.78h0.0654,58.6c1.27,0.022,2.32-1.19,2.34-2.7,0.0184-1.52-0.999-2.76-2.27-2.78h-0.0654-58.6z" stroke-width="11.96526909"/> <path style="marker-start:none;" d="m243,461h162l-65.8,78.4c-0.864,1.03-1.35,2.42-1.35,3.88v30.2l-27.6,24.7v-54.9c0-1.46-0.485-2.85-1.35-3.88l-65.8-78.4z" stroke-width="17.94790268"/> <rect stroke-linejoin="bevel" rx="10.7" stroke-dashoffset="0" height="144" width="126" stroke-linecap="round" y="316" x="259" stroke-width="17.9"/> </g> </g> </symbol><symbol viewBox="0 0 100 100" id="icon-gears"><title>gears</title><rect x="0" y="0" width="100" height="100" fill="none" class="bk"/><g transform="translate(-20,-20)"><path d="M79.9,52.6C80,51.8,80,50.9,80,50s0-1.8-0.1-2.6l-5.1-0.4c-0.3-2.4-0.9-4.6-1.8-6.7l4.2-2.9c-0.7-1.6-1.6-3.1-2.6-4.5 L70,35c-1.4-1.9-3.1-3.5-4.9-4.9l2.2-4.6c-1.4-1-2.9-1.9-4.5-2.6L59.8,27c-2.1-0.9-4.4-1.5-6.7-1.8l-0.4-5.1C51.8,20,50.9,20,50,20 s-1.8,0-2.6,0.1l-0.4,5.1c-2.4,0.3-4.6,0.9-6.7,1.8l-2.9-4.1c-1.6,0.7-3.1,1.6-4.5,2.6l2.1,4.6c-1.9,1.4-3.5,3.1-5,4.9l-4.5-2.1 c-1,1.4-1.9,2.9-2.6,4.5l4.1,2.9c-0.9,2.1-1.5,4.4-1.8,6.8l-5,0.4C20,48.2,20,49.1,20,50s0,1.8,0.1,2.6l5,0.4 c0.3,2.4,0.9,4.7,1.8,6.8l-4.1,2.9c0.7,1.6,1.6,3.1,2.6,4.5l4.5-2.1c1.4,1.9,3.1,3.5,5,4.9l-2.1,4.6c1.4,1,2.9,1.9,4.5,2.6l2.9-4.1 c2.1,0.9,4.4,1.5,6.7,1.8l0.4,5.1C48.2,80,49.1,80,50,80s1.8,0,2.6-0.1l0.4-5.1c2.3-0.3,4.6-0.9,6.7-1.8l2.9,4.2 c1.6-0.7,3.1-1.6,4.5-2.6L65,69.9c1.9-1.4,3.5-3,4.9-4.9l4.6,2.2c1-1.4,1.9-2.9,2.6-4.5L73,59.8c0.9-2.1,1.5-4.4,1.8-6.7L79.9,52.6 z M50,65c-8.3,0-15-6.7-15-15c0-8.3,6.7-15,15-15s15,6.7,15,15C65,58.3,58.3,65,50,65z" fill="#8f7f59"><animateTransform attributeName="transform" type="rotate" from="90 50 50" to="0 50 50" dur=".5s" repeatCount="indefinite"/></path></g><g transform="translate(20,20) rotate(15 50 50)"><path d="M79.9,52.6C80,51.8,80,50.9,80,50s0-1.8-0.1-2.6l-5.1-0.4c-0.3-2.4-0.9-4.6-1.8-6.7l4.2-2.9c-0.7-1.6-1.6-3.1-2.6-4.5 L70,35c-1.4-1.9-3.1-3.5-4.9-4.9l2.2-4.6c-1.4-1-2.9-1.9-4.5-2.6L59.8,27c-2.1-0.9-4.4-1.5-6.7-1.8l-0.4-5.1C51.8,20,50.9,20,50,20 s-1.8,0-2.6,0.1l-0.4,5.1c-2.4,0.3-4.6,0.9-6.7,1.8l-2.9-4.1c-1.6,0.7-3.1,1.6-4.5,2.6l2.1,4.6c-1.9,1.4-3.5,3.1-5,4.9l-4.5-2.1 c-1,1.4-1.9,2.9-2.6,4.5l4.1,2.9c-0.9,2.1-1.5,4.4-1.8,6.8l-5,0.4C20,48.2,20,49.1,20,50s0,1.8,0.1,2.6l5,0.4 c0.3,2.4,0.9,4.7,1.8,6.8l-4.1,2.9c0.7,1.6,1.6,3.1,2.6,4.5l4.5-2.1c1.4,1.9,3.1,3.5,5,4.9l-2.1,4.6c1.4,1,2.9,1.9,4.5,2.6l2.9-4.1 c2.1,0.9,4.4,1.5,6.7,1.8l0.4,5.1C48.2,80,49.1,80,50,80s1.8,0,2.6-0.1l0.4-5.1c2.3-0.3,4.6-0.9,6.7-1.8l2.9,4.2 c1.6-0.7,3.1-1.6,4.5-2.6L65,69.9c1.9-1.4,3.5-3,4.9-4.9l4.6,2.2c1-1.4,1.9-2.9,2.6-4.5L73,59.8c0.9-2.1,1.5-4.4,1.8-6.7L79.9,52.6 z M50,65c-8.3,0-15-6.7-15-15c0-8.3,6.7-15,15-15s15,6.7,15,15C65,58.3,58.3,65,50,65z" fill="#9f9fab"><animateTransform attributeName="transform" type="rotate" from="0 50 50" to="90 50 50" dur=".5s" repeatCount="indefinite"/></path></g></symbol><symbol viewBox="0 0 438.533 438.533" id="icon-minus20"><title>minus20</title> <g> <path d="M409.133,109.203c-19.608-33.592-46.205-60.189-79.798-79.796C295.736,9.801,259.058,0,219.273,0
		c-39.781,0-76.47,9.801-110.063,29.407c-33.595,19.604-60.192,46.201-79.8,79.796C9.801,142.8,0,179.489,0,219.267
		c0,39.78,9.804,76.463,29.407,110.062c19.607,33.592,46.204,60.189,79.799,79.798c33.597,19.605,70.283,29.407,110.063,29.407
		s76.47-9.802,110.065-29.407c33.593-19.602,60.189-46.206,79.795-79.798c19.603-33.596,29.403-70.284,29.403-110.062
		C438.533,179.485,428.732,142.795,409.133,109.203z M347.179,237.539c0,4.948-1.811,9.236-5.428,12.847
		c-3.614,3.614-7.898,5.428-12.847,5.428h-219.27c-4.948,0-9.229-1.813-12.847-5.428c-3.616-3.61-5.424-7.898-5.424-12.847v-36.547
		c0-4.948,1.809-9.231,5.424-12.847c3.617-3.617,7.898-5.426,12.847-5.426h219.27c4.948,0,9.232,1.809,12.847,5.426
		c3.617,3.615,5.428,7.898,5.428,12.847V237.539z"/> </g>                </symbol><symbol viewBox="0 0 13 20" id="icon-next"><title>next</title> <metadata> <rdf:RDF> <cc:Work rdf:about=""> <dc:format>image/svg+xml</dc:format> <dc:type rdf:resource="http://purl.org/dc/dcmitype/StillImage"/> <dc:title/> </cc:Work> </rdf:RDF> </metadata> <g transform="matrix(1.0009559,0,0,1,-2.2181181,2.196)"> <g transform="matrix(1.1217469,0,0,1.1233715,-0.2697912,-2.1965065)"> <path d="m2.44,0.043c0.14-0.071,0.304-0.051,0.425,0.044l10.8,8.5c0.094,0.074,0.152,0.191,0.152,0.312,0,0.118-0.059,0.24-0.152,0.314l-10.8,8.49c-0.072,0.056-0.162,0.086-0.25,0.086h-0.17c-0.14-0.1-0.22-0.2-0.22-0.4v-17c0-0.154,0.086-0.297,0.224-0.36z"/> </g> </g> </symbol><symbol viewBox="0 0 15 20" id="icon-next25"><title>next25</title> <g transform="translate(-2.2159999,2.196)"> <g transform="matrix(1.1217469,0,0,1.1233715,-0.2697912,-2.1965065)"> <path d="m2.44,0.043c0.14-0.071,0.304-0.051,0.425,0.044l10.777,8.502c0.094,0.074,0.152,0.191,0.152,0.312,0,0.118-0.059,0.24-0.152,0.314l-10.778,8.503c-0.072,0.056-0.162,0.086-0.25,0.086l-0.175-0.04c-0.137-0.065-0.223-0.206-0.223-0.362v-16.999c0-0.154,0.086-0.297,0.224-0.36z"/> <path d="m12.616,0.034h2.656c0.175,0,0.316,0.181,0.316,0.399v16.935c0,0.222-0.142,0.403-0.316,0.403h-2.656c-0.174,0-0.316-0.182-0.316-0.403v-16.934c0-0.219,0.143-0.4,0.316-0.4z"/> </g> </g> <metadata> <rdf:RDF> <cc:Work rdf:about=""> <dc:title/> </cc:Work> </rdf:RDF> </metadata> </symbol><symbol viewBox="0 0 70 35" id="icon-or"><title>or</title>  <metadata> <rdf:RDF> <cc:Work rdf:about=""> <dc:format>image/svg+xml</dc:format> <dc:type rdf:resource="http://purl.org/dc/dcmitype/StillImage"/> <dc:title/> </cc:Work> </rdf:RDF> </metadata> <text style="letter-spacing:0px;text-anchor:middle;word-spacing:0px;text-align:center;" line-height="125%" font-family="Sans" xml:space="preserve" font-size="39.51560974px" transform="matrix(1.0152604,0,0,0.99534567,30.375682,5.1072053)" filter="url(#or-filter3479)" y="26.548824" x="32.482639" font-weight="bold" font-style="normal" fill="#000000"><tspan style="text-anchor:middle;text-align:center;" font-size="39.51560974px" y="26.548824" x="3.8203161" font-weight="bold">OR</tspan></text> </symbol><symbol viewBox="0 0 60 30" id="icon-page-end"><title>page-end</title> <metadata id="page-end-metadata7"> <rdf:RDF> <cc:Work rdf:about=""> <dc:format>image/svg+xml</dc:format> <dc:type rdf:resource="http://purl.org/dc/dcmitype/StillImage"/> <dc:title/> </cc:Work> </rdf:RDF> </metadata> <g id="page-end-layer1" transform="matrix(0.99986585,0,0,0.99974434,888.38797,33167.84)"> <g id="page-end-g3189"> <g id="page-end-layer1-3" transform="translate(-116.64956,-4.5401548)"> <g id="page-end-layer1-9" transform="matrix(-1,0,0,1,-1306.8435,-33796.274)"> <g id="page-end-layer1-4" transform="matrix(0.0590745,0,0,0.0590745,-567.20564,610.7472)"> <path id="page-end-path2989-7" style="stroke-linejoin:round;fill-rule:nonzero;stroke-dashoffset:0;stroke:#000000;stroke-linecap:round;stroke-miterlimit:4;stroke-dasharray:none;stroke-width:6.94123602;fill:#000000;" transform="matrix(0.8446071,0.90116545,-1.0012987,0.69273714,520.5422,299.2755)" d="M303.87,235.71-109.6,385.8-32.842-47.321z"/> </g> </g> </g> <g id="page-end-layer1-3-8" transform="translate(-86.649562,-4.5401548)"> <g id="page-end-layer1-9-7" transform="matrix(-1,0,0,1,-1306.8435,-33796.274)"> <g id="page-end-layer1-4-4" transform="matrix(0.0590745,0,0,0.0590745,-567.20564,610.7472)"> <path id="page-end-path2989-7-2" style="stroke-linejoin:round;fill-rule:nonzero;stroke-dashoffset:0;stroke:#000000;stroke-linecap:round;stroke-miterlimit:4;stroke-dasharray:none;stroke-width:6.94123602;fill:#000000;" transform="matrix(0.8446071,0.90116545,-1.0012987,0.69273714,520.5422,299.2755)" d="M303.87,235.71-109.6,385.8-32.842-47.321z"/> </g> </g> </g> </g> </g> </symbol><symbol viewBox="0 0 60 30" id="icon-page-start"><title>page-start</title> <metadata id="page-start-metadata7"> <rdf:RDF> <cc:Work rdf:about=""> <dc:format>image/svg+xml</dc:format> <dc:type rdf:resource="http://purl.org/dc/dcmitype/StillImage"/> <dc:title/> </cc:Work> </rdf:RDF> </metadata> <g id="page-start-layer1" transform="matrix(0.99986696,0,0,0.99974434,888.38904,33167.84)"> <g id="page-start-g3189" transform="matrix(-1,0,0,1,-1717.0064,0)"> <g id="page-start-layer1-3" transform="translate(-116.64956,-4.5401548)"> <g id="page-start-layer1-9" transform="matrix(-1,0,0,1,-1306.8435,-33796.274)"> <g id="page-start-layer1-4" transform="matrix(0.0590745,0,0,0.0590745,-567.20564,610.7472)"> <path id="page-start-path2989-7" style="stroke-linejoin:round;fill-rule:nonzero;stroke-dashoffset:0;stroke:#000000;stroke-linecap:round;stroke-miterlimit:4;stroke-dasharray:none;stroke-width:6.9412322;fill:#000000;" transform="matrix(0.8446071,0.90116545,-1.0012987,0.69273714,520.5422,299.2755)" d="M303.87,235.71-109.6,385.8-32.842-47.321z"/> </g> </g> </g> <g id="page-start-layer1-3-8" transform="translate(-86.649562,-4.5401548)"> <g id="page-start-layer1-9-7" transform="matrix(-1,0,0,1,-1306.8435,-33796.274)"> <g id="page-start-layer1-4-4" transform="matrix(0.0590745,0,0,0.0590745,-567.20564,610.7472)"> <path id="page-start-path2989-7-2" style="stroke-linejoin:round;fill-rule:nonzero;stroke-dashoffset:0;stroke:#000000;stroke-linecap:round;stroke-miterlimit:4;stroke-dasharray:none;stroke-width:6.9412322;fill:#000000;" transform="matrix(0.8446071,0.90116545,-1.0012987,0.69273714,520.5422,299.2755)" d="M303.87,235.71-109.6,385.8-32.842-47.321z"/> </g> </g> </g> </g> </g> </symbol><symbol viewBox="0 0 13 20" id="icon-prev"><title>prev</title> <metadata> <rdf:RDF> <cc:Work rdf:about=""> <dc:format>image/svg+xml</dc:format> <dc:type rdf:resource="http://purl.org/dc/dcmitype/StillImage"/> <dc:title/> </cc:Work> </rdf:RDF> </metadata> <g transform="matrix(-1.0009559,0,0,1,15.218119,2.196)"> <g transform="matrix(1.1217469,0,0,1.1233715,-0.2697912,-2.1965065)"> <path d="m2.44,0.043c0.14-0.071,0.304-0.051,0.425,0.044l10.8,8.5c0.094,0.074,0.152,0.191,0.152,0.312,0,0.118-0.059,0.24-0.152,0.314l-10.8,8.49c-0.072,0.056-0.162,0.086-0.25,0.086h-0.17c-0.14-0.1-0.22-0.2-0.22-0.4v-17c0-0.154,0.086-0.297,0.224-0.36z"/> </g> </g> </symbol><symbol viewBox="0 0 15 20" id="icon-prev25"><title>prev25</title> <g transform="translate(-2.2159999,2.196)"> <g transform="matrix(-1.1217469,0,0,1.1233715,19.701791,-2.1965065)"> <path d="m2.44,0.043c0.14-0.071,0.304-0.051,0.425,0.044l10.777,8.502c0.094,0.074,0.152,0.191,0.152,0.312,0,0.118-0.059,0.24-0.152,0.314l-10.778,8.503c-0.072,0.056-0.162,0.086-0.25,0.086l-0.175-0.04c-0.137-0.065-0.223-0.206-0.223-0.362v-16.999c0-0.154,0.086-0.297,0.224-0.36z"/> <path d="m12.616,0.034h2.656c0.175,0,0.316,0.181,0.316,0.399v16.935c0,0.222-0.142,0.403-0.316,0.403h-2.656c-0.174,0-0.316-0.182-0.316-0.403v-16.934c0-0.219,0.143-0.4,0.316-0.4z"/> </g> </g> <metadata> <rdf:RDF> <cc:Work rdf:about=""> <dc:title/> </cc:Work> </rdf:RDF> </metadata> </symbol><symbol viewBox="0 0 17.802 17.802" id="icon-previous16"><title>previous16</title> <g> <g id="previous16-c92_stop"> <path d="M15.363,0.042c-0.139-0.07-0.303-0.051-0.424,0.043L4.163,8.587C4.069,8.664,4.01,8.78,4.01,8.9
			c0,0.119,0.059,0.24,0.153,0.314l10.776,8.502c0.071,0.057,0.162,0.086,0.249,0.086l0.175-0.039
			c0.139-0.064,0.225-0.207,0.225-0.361V0.403C15.588,0.249,15.502,0.107,15.363,0.042z"/> <path d="M5.188,0.033H2.53c-0.172,0-0.315,0.182-0.315,0.401V17.37c0,0.221,0.143,0.403,0.315,0.403h2.657
			c0.174,0,0.315-0.183,0.315-0.403V0.434C5.503,0.215,5.361,0.033,5.188,0.033z"/> </g>  </g>                </symbol><symbol viewBox="0 0 60 60" id="icon-slider-ctrl"><title>slider-ctrl</title> <metadata> <rdf:RDF> <cc:Work rdf:about=""> <dc:format>image/svg+xml</dc:format> <dc:type rdf:resource="http://purl.org/dc/dcmitype/StillImage"/> <dc:title/> </cc:Work> </rdf:RDF> </metadata> <circle cy="30" cx="30" r="30" fill="#ffffff"/> <circle cx="30" cy="30" r="24" fill="#000033"/> <circle cx="30" cy="30" r="18" fill="#ffffff"/> </symbol><symbol viewBox="0 -10 600 30" id="icon-slider"><title>slider</title>  <metadata> <rdf:RDF> <cc:Work rdf:about=""> <dc:format>image/svg+xml</dc:format> <dc:type rdf:resource="http://purl.org/dc/dcmitype/StillImage"/> <dc:title/> </cc:Work> </rdf:RDF> </metadata> <g transform="translate(-42.59375,-506.21875)"> <rect stroke-linejoin="round" stroke-dasharray="none" fill-rule="evenodd" stroke-dashoffset="0" rx="21.911" ry="0.69983" height="0.69983" width="590" stroke="#ffffff" stroke-linecap="butt" stroke-miterlimit="4" y="511.62" x="47.594" stroke-width="10" fill="#000033"/> </g> </symbol><symbol id="icon-svg-defs"><title>add34</title><symbol viewBox="0 0 525.938 525.938" id="svg-defs-icon-add34"> <g> <g> <path style="fill:#010002;" d="M505.02,160.471c-13.942-32.472-32.672-60.463-56.18-83.971s-51.398-42.135-83.672-55.881
			S298.828,0,262.969,0S193.043,6.873,160.77,20.619S100.606,52.992,77.098,76.5s-42.234,51.498-56.18,83.971S0,227.01,0,262.67
			s6.973,69.727,20.918,102.199s32.672,60.463,56.18,83.971s51.398,42.234,83.672,56.18s66.34,20.918,102.199,20.918
			s69.926-6.973,102.199-20.918c32.271-13.942,60.164-32.672,83.672-56.18c23.508-23.508,42.234-51.498,56.18-83.971
			c13.946-32.476,20.918-66.539,20.918-102.199S518.965,192.943,505.02,160.471z M402.223,302.414h-99.211v99.809h-80.086v-99.809
			h-99.211v-79.488h99.211v-99.809h80.086v99.809h99.211V302.414z"/> </g> </g> </symbol><symbol viewBox="0 0 120 50" id="svg-defs-icon-and"> <sodipodi:namedview id="svg-defs-and-base" pagecolor="#ffffff" bordercolor="#666666" borderopacity="1.0" inkscape:pageopacity="0.0" inkscape:pageshadow="2" inkscape:zoom="0.4" inkscape:cx="4e+002" inkscape:cy="5e+002" inkscape:document-units="px" inkscape:current-layer="layer1" showgrid="false" fit-margin-top="0" fit-margin-left="0" fit-margin-right="0" fit-margin-bottom="0" inkscape:window-width="1016" inkscape:window-height="662" inkscape:window-x="156" inkscape:window-y="156" inkscape:window-maximized="0" borderlayer="false"/> <metadata id="svg-defs-and-metadata7"> <rdf:RDF> <cc:Work rdf:about=""> <dc:format>image/svg+xml</dc:format> <dc:type rdf:resource="http://purl.org/dc/dcmitype/StillImage"/> <dc:title/> </cc:Work> </rdf:RDF> </metadata> <g inkscape:label="Layer 1" inkscape:groupmode="layer" id="svg-defs-and-layer1" transform="translate(200,-1000)"> <rect style="fill:none;stroke:#000000;stroke-width:0.9;stroke-linecap:round;stroke-linejoin:bevel;stroke-miterlimit:4;stroke-opacity:1;stroke-dasharray:none;stroke-dashoffset:0" id="svg-defs-and-rect2985" width="120" height="50" x="-200" y="2e+002" rx="3"/> <text xml:space="preserve" style="font-size:40px;font-style:normal;font-variant:normal;font-weight:bold;font-stretch:normal;text-align:start;line-height:125%;letter-spacing:0px;word-spacing:0px;writing-mode:lr-tb;text-anchor:start;fill:#000000;fill-opacity:1;stroke:none;filter:url(#svg-defs-and-filter3855);font-family:Sans;-inkscape-font-specification:Sans Bold" x="-183.0647" y="238.10832" id="svg-defs-and-text2987" sodipodi:linespacing="125%"><tspan sodipodi:role="line" id="svg-defs-and-tspan2989" x="-183.0647" y="238.10832">AND</tspan></text> </g> </symbol><symbol viewBox="0 0 612 612" id="svg-defs-icon-cancel28"> <g> <g> <path style="fill:#010002;" d="M587.826,186.966c-16.116-37.332-37.944-69.768-65.484-97.308s-59.976-49.368-97.308-65.484
			S348.024,0,306,0c-28.152,0-55.284,3.672-81.396,11.016s-50.49,17.646-73.134,30.906s-43.248,29.172-61.812,47.736
			s-34.476,39.168-47.736,61.812c-13.26,22.646-23.562,47.022-30.906,73.134C3.672,250.716,0,277.848,0,306
			s3.672,55.284,11.016,81.396c7.344,26.11,17.646,50.487,30.906,73.134c13.26,22.644,29.172,43.249,47.736,61.812
			c18.564,18.564,39.168,34.478,61.812,47.736c22.644,13.26,47.022,23.561,73.134,30.906C250.716,608.328,277.848,612,306,612
			s55.284-3.672,81.396-11.016c26.111-7.346,50.488-17.646,73.135-30.906c22.644-13.259,43.249-29.172,61.812-47.736
			c18.564-18.563,34.478-39.168,47.736-61.812c13.26-22.646,23.561-47.023,30.906-73.135C608.328,361.284,612,334.152,612,306
			C612,263.976,603.942,224.298,587.826,186.966z M468.18,391.68c2.04,2.04,3.063,4.284,3.063,6.732s-1.021,4.488-3.063,6.12
			l-59.976,60.588c-1.631,1.632-3.876,2.448-6.732,2.448c-2.854,0-4.895-0.816-6.12-2.448l-86.292-86.292l-85.68,86.292
			c-2.448,1.632-4.692,2.448-6.732,2.448c-1.632,0-3.672-0.816-6.12-2.448l-59.976-60.588c-2.04-1.226-3.06-3.267-3.06-6.12
			c0-2.448,1.02-4.692,3.06-6.732l85.68-85.68l-85.68-85.68c-2.04-2.04-3.06-4.284-3.06-6.732c0-2.856,1.02-4.896,3.06-6.12
			l59.976-60.588c1.632-1.632,3.672-2.448,6.12-2.448s4.692,0.816,6.732,2.448l85.68,86.292l86.292-86.292
			c1.635-1.632,3.675-2.448,6.12-2.448c2.448,0,4.692,0.816,6.732,2.448l59.976,60.588c2.04,1.632,3.063,3.672,3.063,6.12
			s-1.021,4.692-3.063,6.732L382.5,306L468.18,391.68z"/> </g> </g> </symbol><symbol viewBox="0 0 335 430" id="svg-defs-icon-file"> <g stroke="#000000" transform="translate(-622.84375,-237.15625)"> <rect stroke-linejoin="round" stroke-dasharray="none" fill-rule="evenodd" stroke-dashoffset="0" rx="21.62" ry="23.124" height="400" width="305" stroke-linecap="butt" stroke-miterlimit="4" y="252.14" x="637.86" stroke-width="30" class="file-line" fill="#ffffff"/> <path d="m892.88,321.5h-200.77c-7.5601,0-13.69,6.189-13.69,13.809,0,7.6348,6.1309,13.811,13.69,13.811h200.77c7.561,0,13.689-6.177,13.689-13.811,0.002-7.6188-6.1279-13.809-13.687-13.809z" class="file-line" fill="#000000"/> <path d="m892.88,387.23h-200.77c-7.5601,0-13.69,6.187-13.69,13.809,0,7.6328,6.1309,13.811,13.69,13.811h200.77c7.561,0,13.689-6.179,13.689-13.811,0.002-7.6208-6.1279-13.809-13.687-13.809z" class="file-line" fill="#000000"/> <path d="m892.88,452.97h-200.77c-7.5601,0-13.69,6.19-13.69,13.812,0,7.6318,6.1309,13.809,13.69,13.809h200.77c7.561,0,13.689-6.177,13.689-13.809,0.002-7.6218-6.1279-13.812-13.687-13.812z" class="file-line" fill="#000000"/> <path d="m892.88,518.7h-200.77c-7.5601,0-13.69,6.19-13.69,13.809,0,7.6368,6.1309,13.811,13.69,13.811h200.77c7.561,0,13.689-6.176,13.689-13.811,0.002-7.6188-6.1279-13.809-13.687-13.809z" class="file-line" fill="#000000"/> </g> <metadata> <rdf:RDF> <cc:Work rdf:about=""> <dc:title/> </cc:Work> </rdf:RDF> </metadata> </symbol><symbol viewBox="0 0 33.416659 52.145157" id="svg-defs-icon-filter"> <metadata> <rdf:RDF> <cc:Work rdf:about=""> <dc:format>image/svg+xml</dc:format> <dc:type rdf:resource="http://purl.org/dc/dcmitype/StillImage"/> <dc:title/> </cc:Work> </rdf:RDF> </metadata> <g transform="matrix(0.16666663,0,0,0.16666663,205.45274,502.28528)"> <g stroke-miterlimit="4" fill="none" stroke-dasharray="none" transform="matrix(1,0,0,1.005814,-1456.4042,-3322.9687)"> <path style="marker-start:none;" d="m293,380c-1.27-0.022-2.32,1.19-2.34,2.7-0.018,1.52,0.999,2.76,2.27,2.78h0.065,58.6c1.27,0.022,2.32-1.19,2.34-2.7,0.019-1.52-0.999-2.76-2.27-2.78h-0.065-58.6z" stroke-width="11.96526909"/> <path style="marker-start:none;" d="m293,406c-1.27-0.022-2.32,1.19-2.34,2.7-0.0184,1.52,0.999,2.76,2.27,2.78h0.0654,58.6c1.27,0.022,2.32-1.19,2.34-2.7,0.0184-1.52-0.999-2.76-2.27-2.78h-0.0654-58.6z" stroke-width="11.96526909"/> <path style="marker-start:none;" d="m293,432c-1.27-0.022-2.32,1.19-2.34,2.7-0.0184,1.52,0.999,2.76,2.27,2.78h0.0654,58.6c1.27,0.022,2.32-1.19,2.34-2.7,0.0184-1.52-0.999-2.76-2.27-2.78h-0.0654-58.6z" stroke-width="11.96526909"/> <path style="marker-start:none;" d="m243,461h162l-65.8,78.4c-0.864,1.03-1.35,2.42-1.35,3.88v30.2l-27.6,24.7v-54.9c0-1.46-0.485-2.85-1.35-3.88l-65.8-78.4z" stroke-width="17.94790268"/> <rect stroke-linejoin="bevel" rx="10.7" stroke-dashoffset="0" height="144" width="126" stroke-linecap="round" y="316" x="259" stroke-width="17.9"/> </g> </g> </symbol><symbol viewBox="0 0 100 100" id="svg-defs-icon-gears"><rect x="0" y="0" width="100" height="100" fill="none" class="bk"/><g transform="translate(-20,-20)"><path d="M79.9,52.6C80,51.8,80,50.9,80,50s0-1.8-0.1-2.6l-5.1-0.4c-0.3-2.4-0.9-4.6-1.8-6.7l4.2-2.9c-0.7-1.6-1.6-3.1-2.6-4.5 L70,35c-1.4-1.9-3.1-3.5-4.9-4.9l2.2-4.6c-1.4-1-2.9-1.9-4.5-2.6L59.8,27c-2.1-0.9-4.4-1.5-6.7-1.8l-0.4-5.1C51.8,20,50.9,20,50,20 s-1.8,0-2.6,0.1l-0.4,5.1c-2.4,0.3-4.6,0.9-6.7,1.8l-2.9-4.1c-1.6,0.7-3.1,1.6-4.5,2.6l2.1,4.6c-1.9,1.4-3.5,3.1-5,4.9l-4.5-2.1 c-1,1.4-1.9,2.9-2.6,4.5l4.1,2.9c-0.9,2.1-1.5,4.4-1.8,6.8l-5,0.4C20,48.2,20,49.1,20,50s0,1.8,0.1,2.6l5,0.4 c0.3,2.4,0.9,4.7,1.8,6.8l-4.1,2.9c0.7,1.6,1.6,3.1,2.6,4.5l4.5-2.1c1.4,1.9,3.1,3.5,5,4.9l-2.1,4.6c1.4,1,2.9,1.9,4.5,2.6l2.9-4.1 c2.1,0.9,4.4,1.5,6.7,1.8l0.4,5.1C48.2,80,49.1,80,50,80s1.8,0,2.6-0.1l0.4-5.1c2.3-0.3,4.6-0.9,6.7-1.8l2.9,4.2 c1.6-0.7,3.1-1.6,4.5-2.6L65,69.9c1.9-1.4,3.5-3,4.9-4.9l4.6,2.2c1-1.4,1.9-2.9,2.6-4.5L73,59.8c0.9-2.1,1.5-4.4,1.8-6.7L79.9,52.6 z M50,65c-8.3,0-15-6.7-15-15c0-8.3,6.7-15,15-15s15,6.7,15,15C65,58.3,58.3,65,50,65z" fill="#8f7f59"><animateTransform attributeName="transform" type="rotate" from="90 50 50" to="0 50 50" dur=".5s" repeatCount="indefinite"/></path></g><g transform="translate(20,20) rotate(15 50 50)"><path d="M79.9,52.6C80,51.8,80,50.9,80,50s0-1.8-0.1-2.6l-5.1-0.4c-0.3-2.4-0.9-4.6-1.8-6.7l4.2-2.9c-0.7-1.6-1.6-3.1-2.6-4.5 L70,35c-1.4-1.9-3.1-3.5-4.9-4.9l2.2-4.6c-1.4-1-2.9-1.9-4.5-2.6L59.8,27c-2.1-0.9-4.4-1.5-6.7-1.8l-0.4-5.1C51.8,20,50.9,20,50,20 s-1.8,0-2.6,0.1l-0.4,5.1c-2.4,0.3-4.6,0.9-6.7,1.8l-2.9-4.1c-1.6,0.7-3.1,1.6-4.5,2.6l2.1,4.6c-1.9,1.4-3.5,3.1-5,4.9l-4.5-2.1 c-1,1.4-1.9,2.9-2.6,4.5l4.1,2.9c-0.9,2.1-1.5,4.4-1.8,6.8l-5,0.4C20,48.2,20,49.1,20,50s0,1.8,0.1,2.6l5,0.4 c0.3,2.4,0.9,4.7,1.8,6.8l-4.1,2.9c0.7,1.6,1.6,3.1,2.6,4.5l4.5-2.1c1.4,1.9,3.1,3.5,5,4.9l-2.1,4.6c1.4,1,2.9,1.9,4.5,2.6l2.9-4.1 c2.1,0.9,4.4,1.5,6.7,1.8l0.4,5.1C48.2,80,49.1,80,50,80s1.8,0,2.6-0.1l0.4-5.1c2.3-0.3,4.6-0.9,6.7-1.8l2.9,4.2 c1.6-0.7,3.1-1.6,4.5-2.6L65,69.9c1.9-1.4,3.5-3,4.9-4.9l4.6,2.2c1-1.4,1.9-2.9,2.6-4.5L73,59.8c0.9-2.1,1.5-4.4,1.8-6.7L79.9,52.6 z M50,65c-8.3,0-15-6.7-15-15c0-8.3,6.7-15,15-15s15,6.7,15,15C65,58.3,58.3,65,50,65z" fill="#9f9fab"><animateTransform attributeName="transform" type="rotate" from="0 50 50" to="90 50 50" dur=".5s" repeatCount="indefinite"/></path></g></symbol><symbol viewBox="0 0 438.533 438.533" id="svg-defs-icon-minus20"> <g> <path d="M409.133,109.203c-19.608-33.592-46.205-60.189-79.798-79.796C295.736,9.801,259.058,0,219.273,0
		c-39.781,0-76.47,9.801-110.063,29.407c-33.595,19.604-60.192,46.201-79.8,79.796C9.801,142.8,0,179.489,0,219.267
		c0,39.78,9.804,76.463,29.407,110.062c19.607,33.592,46.204,60.189,79.799,79.798c33.597,19.605,70.283,29.407,110.063,29.407
		s76.47-9.802,110.065-29.407c33.593-19.602,60.189-46.206,79.795-79.798c19.603-33.596,29.403-70.284,29.403-110.062
		C438.533,179.485,428.732,142.795,409.133,109.203z M347.179,237.539c0,4.948-1.811,9.236-5.428,12.847
		c-3.614,3.614-7.898,5.428-12.847,5.428h-219.27c-4.948,0-9.229-1.813-12.847-5.428c-3.616-3.61-5.424-7.898-5.424-12.847v-36.547
		c0-4.948,1.809-9.231,5.424-12.847c3.617-3.617,7.898-5.426,12.847-5.426h219.27c4.948,0,9.232,1.809,12.847,5.426
		c3.617,3.615,5.428,7.898,5.428,12.847V237.539z"/> </g> </symbol><symbol viewBox="0 0 13 20" id="svg-defs-icon-next"> <metadata> <rdf:RDF> <cc:Work rdf:about=""> <dc:format>image/svg+xml</dc:format> <dc:type rdf:resource="http://purl.org/dc/dcmitype/StillImage"/> <dc:title/> </cc:Work> </rdf:RDF> </metadata> <g transform="matrix(1.0009559,0,0,1,-2.2181181,2.196)"> <g transform="matrix(1.1217469,0,0,1.1233715,-0.2697912,-2.1965065)"> <path d="m2.44,0.043c0.14-0.071,0.304-0.051,0.425,0.044l10.8,8.5c0.094,0.074,0.152,0.191,0.152,0.312,0,0.118-0.059,0.24-0.152,0.314l-10.8,8.49c-0.072,0.056-0.162,0.086-0.25,0.086h-0.17c-0.14-0.1-0.22-0.2-0.22-0.4v-17c0-0.154,0.086-0.297,0.224-0.36z"/> </g> </g> </symbol><symbol viewBox="0 0 15 20" id="svg-defs-icon-next25"> <g transform="translate(-2.2159999,2.196)"> <g transform="matrix(1.1217469,0,0,1.1233715,-0.2697912,-2.1965065)"> <path d="m2.44,0.043c0.14-0.071,0.304-0.051,0.425,0.044l10.777,8.502c0.094,0.074,0.152,0.191,0.152,0.312,0,0.118-0.059,0.24-0.152,0.314l-10.778,8.503c-0.072,0.056-0.162,0.086-0.25,0.086l-0.175-0.04c-0.137-0.065-0.223-0.206-0.223-0.362v-16.999c0-0.154,0.086-0.297,0.224-0.36z"/> <path d="m12.616,0.034h2.656c0.175,0,0.316,0.181,0.316,0.399v16.935c0,0.222-0.142,0.403-0.316,0.403h-2.656c-0.174,0-0.316-0.182-0.316-0.403v-16.934c0-0.219,0.143-0.4,0.316-0.4z"/> </g> </g> <metadata> <rdf:RDF> <cc:Work rdf:about=""> <dc:title/> </cc:Work> </rdf:RDF> </metadata> </symbol><symbol viewBox="0 0 70 35" id="svg-defs-icon-or"> <metadata> <rdf:RDF> <cc:Work rdf:about=""> <dc:format>image/svg+xml</dc:format> <dc:type rdf:resource="http://purl.org/dc/dcmitype/StillImage"/> <dc:title/> </cc:Work> </rdf:RDF> </metadata> <text style="letter-spacing:0px;text-anchor:middle;word-spacing:0px;text-align:center;" line-height="125%" font-family="Sans" xml:space="preserve" font-size="39.51560974px" transform="matrix(1.0152604,0,0,0.99534567,30.375682,5.1072053)" filter="url(#svg-defs-or-filter3479)" y="26.548824" x="32.482639" font-weight="bold" font-style="normal" fill="#000000"><tspan style="text-anchor:middle;text-align:center;" font-size="39.51560974px" y="26.548824" x="3.8203161" font-weight="bold">OR</tspan></text> </symbol><symbol viewBox="0 0 60 30" id="svg-defs-icon-page-end"> <metadata id="svg-defs-page-end-metadata7"> <rdf:RDF> <cc:Work rdf:about=""> <dc:format>image/svg+xml</dc:format> <dc:type rdf:resource="http://purl.org/dc/dcmitype/StillImage"/> <dc:title/> </cc:Work> </rdf:RDF> </metadata> <g id="svg-defs-page-end-layer1" transform="matrix(0.99986585,0,0,0.99974434,888.38797,33167.84)"> <g id="svg-defs-page-end-g3189"> <g id="svg-defs-page-end-layer1-3" transform="translate(-116.64956,-4.5401548)"> <g id="svg-defs-page-end-layer1-9" transform="matrix(-1,0,0,1,-1306.8435,-33796.274)"> <g id="svg-defs-page-end-layer1-4" transform="matrix(0.0590745,0,0,0.0590745,-567.20564,610.7472)"> <path id="svg-defs-page-end-path2989-7" style="stroke-linejoin:round;fill-rule:nonzero;stroke-dashoffset:0;stroke:#000000;stroke-linecap:round;stroke-miterlimit:4;stroke-dasharray:none;stroke-width:6.94123602;fill:#000000;" transform="matrix(0.8446071,0.90116545,-1.0012987,0.69273714,520.5422,299.2755)" d="M303.87,235.71-109.6,385.8-32.842-47.321z"/> </g> </g> </g> <g id="svg-defs-page-end-layer1-3-8" transform="translate(-86.649562,-4.5401548)"> <g id="svg-defs-page-end-layer1-9-7" transform="matrix(-1,0,0,1,-1306.8435,-33796.274)"> <g id="svg-defs-page-end-layer1-4-4" transform="matrix(0.0590745,0,0,0.0590745,-567.20564,610.7472)"> <path id="svg-defs-page-end-path2989-7-2" style="stroke-linejoin:round;fill-rule:nonzero;stroke-dashoffset:0;stroke:#000000;stroke-linecap:round;stroke-miterlimit:4;stroke-dasharray:none;stroke-width:6.94123602;fill:#000000;" transform="matrix(0.8446071,0.90116545,-1.0012987,0.69273714,520.5422,299.2755)" d="M303.87,235.71-109.6,385.8-32.842-47.321z"/> </g> </g> </g> </g> </g> </symbol><symbol viewBox="0 0 60 30" id="svg-defs-icon-page-start"> <metadata id="svg-defs-page-start-metadata7"> <rdf:RDF> <cc:Work rdf:about=""> <dc:format>image/svg+xml</dc:format> <dc:type rdf:resource="http://purl.org/dc/dcmitype/StillImage"/> <dc:title/> </cc:Work> </rdf:RDF> </metadata> <g id="svg-defs-page-start-layer1" transform="matrix(0.99986696,0,0,0.99974434,888.38904,33167.84)"> <g id="svg-defs-page-start-g3189" transform="matrix(-1,0,0,1,-1717.0064,0)"> <g id="svg-defs-page-start-layer1-3" transform="translate(-116.64956,-4.5401548)"> <g id="svg-defs-page-start-layer1-9" transform="matrix(-1,0,0,1,-1306.8435,-33796.274)"> <g id="svg-defs-page-start-layer1-4" transform="matrix(0.0590745,0,0,0.0590745,-567.20564,610.7472)"> <path id="svg-defs-page-start-path2989-7" style="stroke-linejoin:round;fill-rule:nonzero;stroke-dashoffset:0;stroke:#000000;stroke-linecap:round;stroke-miterlimit:4;stroke-dasharray:none;stroke-width:6.9412322;fill:#000000;" transform="matrix(0.8446071,0.90116545,-1.0012987,0.69273714,520.5422,299.2755)" d="M303.87,235.71-109.6,385.8-32.842-47.321z"/> </g> </g> </g> <g id="svg-defs-page-start-layer1-3-8" transform="translate(-86.649562,-4.5401548)"> <g id="svg-defs-page-start-layer1-9-7" transform="matrix(-1,0,0,1,-1306.8435,-33796.274)"> <g id="svg-defs-page-start-layer1-4-4" transform="matrix(0.0590745,0,0,0.0590745,-567.20564,610.7472)"> <path id="svg-defs-page-start-path2989-7-2" style="stroke-linejoin:round;fill-rule:nonzero;stroke-dashoffset:0;stroke:#000000;stroke-linecap:round;stroke-miterlimit:4;stroke-dasharray:none;stroke-width:6.9412322;fill:#000000;" transform="matrix(0.8446071,0.90116545,-1.0012987,0.69273714,520.5422,299.2755)" d="M303.87,235.71-109.6,385.8-32.842-47.321z"/> </g> </g> </g> </g> </g> </symbol><symbol viewBox="0 0 13 20" id="svg-defs-icon-prev"> <metadata> <rdf:RDF> <cc:Work rdf:about=""> <dc:format>image/svg+xml</dc:format> <dc:type rdf:resource="http://purl.org/dc/dcmitype/StillImage"/> <dc:title/> </cc:Work> </rdf:RDF> </metadata> <g transform="matrix(-1.0009559,0,0,1,15.218119,2.196)"> <g transform="matrix(1.1217469,0,0,1.1233715,-0.2697912,-2.1965065)"> <path d="m2.44,0.043c0.14-0.071,0.304-0.051,0.425,0.044l10.8,8.5c0.094,0.074,0.152,0.191,0.152,0.312,0,0.118-0.059,0.24-0.152,0.314l-10.8,8.49c-0.072,0.056-0.162,0.086-0.25,0.086h-0.17c-0.14-0.1-0.22-0.2-0.22-0.4v-17c0-0.154,0.086-0.297,0.224-0.36z"/> </g> </g> </symbol><symbol viewBox="0 0 15 20" id="svg-defs-icon-prev25"> <g transform="translate(-2.2159999,2.196)"> <g transform="matrix(-1.1217469,0,0,1.1233715,19.701791,-2.1965065)"> <path d="m2.44,0.043c0.14-0.071,0.304-0.051,0.425,0.044l10.777,8.502c0.094,0.074,0.152,0.191,0.152,0.312,0,0.118-0.059,0.24-0.152,0.314l-10.778,8.503c-0.072,0.056-0.162,0.086-0.25,0.086l-0.175-0.04c-0.137-0.065-0.223-0.206-0.223-0.362v-16.999c0-0.154,0.086-0.297,0.224-0.36z"/> <path d="m12.616,0.034h2.656c0.175,0,0.316,0.181,0.316,0.399v16.935c0,0.222-0.142,0.403-0.316,0.403h-2.656c-0.174,0-0.316-0.182-0.316-0.403v-16.934c0-0.219,0.143-0.4,0.316-0.4z"/> </g> </g> <metadata> <rdf:RDF> <cc:Work rdf:about=""> <dc:title/> </cc:Work> </rdf:RDF> </metadata> </symbol><symbol viewBox="0 0 17.802 17.802" id="svg-defs-icon-previous16"> <g> <g id="svg-defs-previous16-c92_stop"> <path d="M15.363,0.042c-0.139-0.07-0.303-0.051-0.424,0.043L4.163,8.587C4.069,8.664,4.01,8.78,4.01,8.9
			c0,0.119,0.059,0.24,0.153,0.314l10.776,8.502c0.071,0.057,0.162,0.086,0.249,0.086l0.175-0.039
			c0.139-0.064,0.225-0.207,0.225-0.361V0.403C15.588,0.249,15.502,0.107,15.363,0.042z"/> <path d="M5.188,0.033H2.53c-0.172,0-0.315,0.182-0.315,0.401V17.37c0,0.221,0.143,0.403,0.315,0.403h2.657
			c0.174,0,0.315-0.183,0.315-0.403V0.434C5.503,0.215,5.361,0.033,5.188,0.033z"/> </g> </g> </symbol><symbol viewBox="0 0 60 60" id="svg-defs-icon-slider-ctrl"> <metadata> <rdf:RDF> <cc:Work rdf:about=""> <dc:format>image/svg+xml</dc:format> <dc:type rdf:resource="http://purl.org/dc/dcmitype/StillImage"/> <dc:title/> </cc:Work> </rdf:RDF> </metadata> <circle cy="30" cx="30" r="30" fill="#ffffff"/> <circle cx="30" cy="30" r="24" fill="#000033"/> <circle cx="30" cy="30" r="18" fill="#ffffff"/> </symbol><symbol viewBox="0 -10 600 30" id="svg-defs-icon-slider"> <metadata> <rdf:RDF> <cc:Work rdf:about=""> <dc:format>image/svg+xml</dc:format> <dc:type rdf:resource="http://purl.org/dc/dcmitype/StillImage"/> <dc:title/> </cc:Work> </rdf:RDF> </metadata> <g transform="translate(-42.59375,-506.21875)"> <rect stroke-linejoin="round" stroke-dasharray="none" fill-rule="evenodd" stroke-dashoffset="0" rx="21.911" ry="0.69983" height="0.69983" width="590" stroke="#ffffff" stroke-linecap="butt" stroke-miterlimit="4" y="511.62" x="47.594" stroke-width="10" fill="#000033"/> </g> </symbol><symbol viewBox="0 0 385 360" id="svg-defs-icon-table"><metadata id="svg-defs-table-metadata3101"><rdf:RDF><cc:Work rdf:about=""><dc:format>image/svg+xml</dc:format><dc:type rdf:resource="http://purl.org/dc/dcmitype/StillImage"/><dc:title/></cc:Work></rdf:RDF></metadata><path id="svg-defs-table-path3214" d="M364.68,0,20.339,0c-11.231,0-20.339,9.0825-20.339,20.301v319.39c0,11.213,9.1016,20.304,20.339,20.304h344.33c11.23,0.01,20.33-9.08,20.33-20.29v-319.4c0.01-11.218-9.09-20.301-20.32-20.301z"/><path id="svg-defs-table-path3212" fill="#ffffff" d="m72.533,335.64-56.258,0,0-47.718,56.258,0z"/><path id="svg-defs-table-path3210" fill="#ffffff" d="m72.533,275.74-56.258,0,0-60.908,56.258,0z"/><path id="svg-defs-table-path3208" fill="#ffffff" d="m72.533,202.66-56.258,0,0-56.845,56.258,0z"/><path id="svg-defs-table-path3206" fill="#ffffff" d="m72.533,133.64-56.258,0,0-49.726,56.258,0z"/><path id="svg-defs-table-path3204" fill="#ffffff" d="m151.84,335.64-67.108,0,0-47.718,67.101,0,0,47.718z"/><path id="svg-defs-table-path3202" fill="#ffffff" d="m151.84,275.74-67.108,0,0-60.908,67.101,0,0,60.908z"/><path id="svg-defs-table-path3200" fill="#ffffff" d="m151.84,202.66-67.108,0,0-56.845,67.101,0,0,56.845z"/><path id="svg-defs-table-path3198" fill="#ffffff" d="m151.84,133.64-67.108,0,0-49.726,67.101,0,0,49.726z"/><path id="svg-defs-table-path3196" fill="#ffffff" d="m225.04,335.64-61.006,0,0-47.718,61.006,0z"/><path id="svg-defs-table-path3194" fill="#ffffff" d="m225.04,275.74-61.006,0,0-60.908,61.006,0z"/><path id="svg-defs-table-path3192" fill="#ffffff" d="m225.04,202.66-61.006,0,0-56.845,61.006,0z"/><path id="svg-defs-table-path3190" fill="#ffffff" d="m225.04,133.64-61.006,0,0-49.726,61.006,0z"/><path id="svg-defs-table-path3188" fill="#ffffff" d="m294.18,335.64-56.939,0,0-47.718,56.939,0z"/><path id="svg-defs-table-path3186" fill="#ffffff" d="m294.18,275.74-56.939,0,0-60.908,56.939,0z"/><path id="svg-defs-table-path3184" fill="#ffffff" d="m294.18,202.66-56.939,0,0-56.845,56.939,0z"/><path id="svg-defs-table-path3182" fill="#ffffff" d="m294.18,133.64-56.939,0,0-49.726,56.939,0z"/><path id="svg-defs-table-path3180" fill="#ffffff" d="m368.75,335.64-62.358,0,0-47.718,62.358,0z"/><path id="svg-defs-table-path3178" fill="#ffffff" d="m368.75,275.74-62.358,0,0-60.908,62.358,0z"/><path id="svg-defs-table-path3176" fill="#ffffff" d="m368.75,202.66-62.358,0,0-56.845,62.358,0z"/><path id="svg-defs-table-path3174" fill="#ffffff" d="m368.75,133.64-62.358,0,0-49.726,62.358,0z"/></symbol><symbol viewBox="0 0 28.265 28.265" id="svg-defs-icon-update17"> <g> <path d="M14.133,28.265c-7.061,0-12.805-5.75-12.805-12.809c0-7.06,5.744-12.807,12.805-12.807c0.469,0,0.943,0.027,1.414,0.08
		v-2.07c0-0.266,0.164-0.508,0.406-0.611c0.252-0.098,0.531-0.043,0.723,0.148l4.537,4.547c0.258,0.258,0.258,0.67,0,0.932
		l-4.535,4.557c-0.193,0.188-0.473,0.246-0.725,0.143c-0.242-0.104-0.406-0.344-0.406-0.609V7.47
		c-0.469-0.086-0.941-0.125-1.414-0.125c-4.473,0-8.113,3.639-8.113,8.111c0,4.471,3.641,8.113,8.113,8.113s8.111-3.643,8.111-8.113
		c0-0.363,0.295-0.66,0.662-0.66h3.369c0.365,0,0.662,0.297,0.662,0.66C26.937,22.515,21.189,28.265,14.133,28.265z"/> </g> </symbol></symbol><symbol viewBox="0 0 385 360" id="icon-table"><title>table</title><metadata id="table-metadata3101"><rdf:RDF><cc:Work rdf:about=""><dc:format>image/svg+xml</dc:format><dc:type rdf:resource="http://purl.org/dc/dcmitype/StillImage"/><dc:title/></cc:Work></rdf:RDF></metadata><path id="table-path3214" d="M364.68,0,20.339,0c-11.231,0-20.339,9.0825-20.339,20.301v319.39c0,11.213,9.1016,20.304,20.339,20.304h344.33c11.23,0.01,20.33-9.08,20.33-20.29v-319.4c0.01-11.218-9.09-20.301-20.32-20.301z"/><path id="table-path3212" fill="#ffffff" d="m72.533,335.64-56.258,0,0-47.718,56.258,0z"/><path id="table-path3210" fill="#ffffff" d="m72.533,275.74-56.258,0,0-60.908,56.258,0z"/><path id="table-path3208" fill="#ffffff" d="m72.533,202.66-56.258,0,0-56.845,56.258,0z"/><path id="table-path3206" fill="#ffffff" d="m72.533,133.64-56.258,0,0-49.726,56.258,0z"/><path id="table-path3204" fill="#ffffff" d="m151.84,335.64-67.108,0,0-47.718,67.101,0,0,47.718z"/><path id="table-path3202" fill="#ffffff" d="m151.84,275.74-67.108,0,0-60.908,67.101,0,0,60.908z"/><path id="table-path3200" fill="#ffffff" d="m151.84,202.66-67.108,0,0-56.845,67.101,0,0,56.845z"/><path id="table-path3198" fill="#ffffff" d="m151.84,133.64-67.108,0,0-49.726,67.101,0,0,49.726z"/><path id="table-path3196" fill="#ffffff" d="m225.04,335.64-61.006,0,0-47.718,61.006,0z"/><path id="table-path3194" fill="#ffffff" d="m225.04,275.74-61.006,0,0-60.908,61.006,0z"/><path id="table-path3192" fill="#ffffff" d="m225.04,202.66-61.006,0,0-56.845,61.006,0z"/><path id="table-path3190" fill="#ffffff" d="m225.04,133.64-61.006,0,0-49.726,61.006,0z"/><path id="table-path3188" fill="#ffffff" d="m294.18,335.64-56.939,0,0-47.718,56.939,0z"/><path id="table-path3186" fill="#ffffff" d="m294.18,275.74-56.939,0,0-60.908,56.939,0z"/><path id="table-path3184" fill="#ffffff" d="m294.18,202.66-56.939,0,0-56.845,56.939,0z"/><path id="table-path3182" fill="#ffffff" d="m294.18,133.64-56.939,0,0-49.726,56.939,0z"/><path id="table-path3180" fill="#ffffff" d="m368.75,335.64-62.358,0,0-47.718,62.358,0z"/><path id="table-path3178" fill="#ffffff" d="m368.75,275.74-62.358,0,0-60.908,62.358,0z"/><path id="table-path3176" fill="#ffffff" d="m368.75,202.66-62.358,0,0-56.845,62.358,0z"/><path id="table-path3174" fill="#ffffff" d="m368.75,133.64-62.358,0,0-49.726,62.358,0z"/></symbol><symbol viewBox="0 0 28.265 28.265" id="icon-update17"><title>update17</title> <g> <path d="M14.133,28.265c-7.061,0-12.805-5.75-12.805-12.809c0-7.06,5.744-12.807,12.805-12.807c0.469,0,0.943,0.027,1.414,0.08
		v-2.07c0-0.266,0.164-0.508,0.406-0.611c0.252-0.098,0.531-0.043,0.723,0.148l4.537,4.547c0.258,0.258,0.258,0.67,0,0.932
		l-4.535,4.557c-0.193,0.188-0.473,0.246-0.725,0.143c-0.242-0.104-0.406-0.344-0.406-0.609V7.47
		c-0.469-0.086-0.941-0.125-1.414-0.125c-4.473,0-8.113,3.639-8.113,8.111c0,4.471,3.641,8.113,8.113,8.113s8.111-3.643,8.111-8.113
		c0-0.363,0.295-0.66,0.662-0.66h3.369c0.365,0,0.662,0.297,0.662,0.66C26.937,22.515,21.189,28.265,14.133,28.265z"/>                </g>                </symbol></svg>