<svg style="display: none;"><symbol viewBox="0 0 525.938 525.938" id="icon-add34"><title>add34</title><path d="M505.02 160.47C491.078 128 472.348 100.01 448.84 76.5s-51.398-42.135-83.672-55.88S298.828 0 262.968 0 193.044 6.873 160.77 20.62 100.606 52.99 77.098 76.5s-42.234 51.498-56.18 83.97S0 227.01 0 262.67s6.973 69.727 20.918 102.2 32.672 60.462 56.18 83.97 51.398 42.234 83.672 56.18 66.34 20.918 102.2 20.918 69.925-6.973 102.198-20.918c32.27-13.942 60.164-32.672 83.672-56.18 23.508-23.508 42.234-51.498 56.18-83.97 13.946-32.477 20.918-66.54 20.918-102.2s-6.973-69.727-20.918-102.2zM402.223 302.415h-99.21v99.81h-80.087v-99.81h-99.21v-79.488h99.21v-99.81h80.086v99.81h99.21v79.488z" fill="#010002"/></symbol><symbol viewBox="0 0 612 612" id="icon-cancel28"><title>cancel28</title><path d="M587.826 186.966c-16.116-37.332-37.944-69.768-65.484-97.308s-59.976-49.368-97.308-65.484S348.024 0 306 0c-28.152 0-55.284 3.672-81.396 11.016s-50.49 17.646-73.134 30.906-43.248 29.172-61.812 47.736-34.476 39.168-47.736 61.812c-13.26 22.646-23.562 47.022-30.906 73.134C3.672 250.716 0 277.848 0 306s3.672 55.284 11.016 81.396c7.344 26.11 17.646 50.487 30.906 73.134 13.26 22.644 29.172 43.25 47.736 61.812 18.564 18.564 39.168 34.478 61.812 47.736 22.644 13.26 47.022 23.56 73.134 30.906C250.716 608.328 277.848 612 306 612s55.284-3.672 81.396-11.016c26.11-7.346 50.488-17.646 73.135-30.906 22.645-13.26 43.25-29.172 61.813-47.736 18.564-18.563 34.478-39.168 47.736-61.812 13.26-22.646 23.56-47.023 30.905-73.135C608.328 361.285 612 334.152 612 306c0-42.024-8.058-81.702-24.174-119.034zM468.18 391.68c2.04 2.04 3.063 4.284 3.063 6.732s-1.02 4.488-3.063 6.12l-59.976 60.588c-1.63 1.632-3.876 2.448-6.732 2.448-2.854 0-4.895-.816-6.12-2.448l-86.292-86.292-85.68 86.292c-2.448 1.632-4.692 2.448-6.732 2.448-1.632 0-3.672-.816-6.12-2.448l-59.976-60.588c-2.04-1.226-3.06-3.267-3.06-6.12 0-2.448 1.02-4.692 3.06-6.732l85.68-85.68-85.68-85.68c-2.04-2.04-3.06-4.284-3.06-6.732 0-2.856 1.02-4.896 3.06-6.12l59.976-60.588c1.632-1.632 3.672-2.448 6.12-2.448s4.692.816 6.732 2.448l85.68 86.292 86.292-86.292c1.635-1.632 3.675-2.448 6.12-2.448 2.448 0 4.692.816 6.732 2.448l59.976 60.588c2.04 1.632 3.063 3.672 3.063 6.12s-1.02 4.692-3.063 6.732L382.5 306l85.68 85.68z" fill="#010002"/></symbol><symbol viewBox="0 0 335 430" id="icon-file"><title>file</title><g stroke="#000" transform="translate(-622.844 -237.156)"><rect stroke-linejoin="round" fill-rule="evenodd" rx="21.62" ry="23.124" height="400" width="305" y="252.14" x="637.86" stroke-width="30" class="file-line" fill="#fff"/><path d="M892.88 321.5H692.11c-7.56 0-13.69 6.19-13.69 13.81 0 7.634 6.13 13.81 13.69 13.81h200.77c7.56 0 13.69-6.177 13.69-13.81 0-7.62-6.13-13.81-13.688-13.81zM892.88 387.23H692.11c-7.56 0-13.69 6.187-13.69 13.81 0 7.632 6.13 13.81 13.69 13.81h200.77c7.56 0 13.69-6.18 13.69-13.81 0-7.622-6.13-13.81-13.688-13.81zM892.88 452.97H692.11c-7.56 0-13.69 6.19-13.69 13.812 0 7.632 6.13 13.81 13.69 13.81h200.77c7.56 0 13.69-6.178 13.69-13.81 0-7.622-6.13-13.812-13.688-13.812zM892.88 518.7H692.11c-7.56 0-13.69 6.19-13.69 13.81 0 7.636 6.13 13.81 13.69 13.81h200.77c7.56 0 13.69-6.176 13.69-13.81 0-7.62-6.13-13.81-13.688-13.81z" class="file-line"/></g></symbol><symbol viewBox="0 0 33.416659 52.145157" id="icon-filter"><title>filter</title><g fill="none" transform="matrix(.16667 0 0 .16764 -37.28 -51.543)"><path d="M293 380c-1.27-.022-2.32 1.19-2.34 2.7-.018 1.52 1 2.76 2.27 2.78h58.665c1.27.022 2.32-1.19 2.34-2.7.02-1.52-1-2.76-2.27-2.78H293zM293 406c-1.27-.022-2.32 1.19-2.34 2.7-.018 1.52 1 2.76 2.27 2.78h58.665c1.27.022 2.32-1.19 2.34-2.7.02-1.52-1-2.76-2.27-2.78H293zM293 432c-1.27-.022-2.32 1.19-2.34 2.7-.018 1.52 1 2.76 2.27 2.78h58.665c1.27.022 2.32-1.19 2.34-2.7.02-1.52-1-2.76-2.27-2.78H293zM243 461h162l-65.8 78.4c-.864 1.03-1.35 2.42-1.35 3.88v30.2l-27.6 24.7v-54.9c0-1.46-.485-2.85-1.35-3.88L243.1 461z"/><rect rx="10.7" height="144" width="126" y="316" x="259"/></g></symbol><symbol viewBox="0 0 438.533 438.533" id="icon-minus20"><title>minus20</title><path d="M409.133 109.203c-19.608-33.592-46.205-60.19-79.798-79.796C295.735 9.8 259.058 0 219.273 0c-39.78 0-76.47 9.8-110.063 29.407-33.595 19.604-60.192 46.2-79.8 79.796C9.8 142.8 0 179.49 0 219.267c0 39.78 9.804 76.463 29.407 110.062 19.607 33.59 46.204 60.188 79.8 79.797 33.596 19.605 70.282 29.407 110.062 29.407s76.47-9.802 110.064-29.407c33.593-19.602 60.19-46.206 79.795-79.798 19.602-33.597 29.402-70.285 29.402-110.063 0-39.782-9.8-76.472-29.4-110.064zM347.18 237.54c0 4.947-1.812 9.235-5.43 12.846-3.613 3.614-7.897 5.428-12.846 5.428h-219.27c-4.948 0-9.23-1.813-12.847-5.428-3.616-3.61-5.424-7.898-5.424-12.847V200.99c0-4.948 1.81-9.23 5.424-12.847 3.617-3.617 7.898-5.426 12.847-5.426h219.27c4.948 0 9.232 1.808 12.847 5.425 3.618 3.615 5.43 7.898 5.43 12.847v36.547z"/></symbol><symbol viewBox="0 0 13 20" id="icon-next"><title>next</title><path d="M.252.048c.157-.08.34-.057.477.05l12.125 9.548c.106.083.17.214.17.35 0 .133-.065.27-.17.353L.73 19.886c-.082.062-.183.096-.282.096h-.19C.1 19.87.01 19.758.01 19.533V.437C.01.263.107.103.262.032z"/></symbol><symbol viewBox="0 0 15 20" id="icon-next25"><title>next25</title><path d="M.25.048C.41-.032.593-.01.73.098l12.09 9.55c.105.083.17.215.17.35 0 .133-.067.27-.17.353L.727 19.904C.645 19.966.544 20 .445 20l-.196-.045c-.154-.073-.25-.23-.25-.407V.452C0 .28.096.12.25.048z"/><path d="M11.666.038h2.98c.196 0 .354.203.354.448V19.51c0 .25-.16.453-.354.453h-2.98c-.195 0-.354-.205-.354-.453V.487c0-.246.16-.45.354-.45z"/></symbol><symbol viewBox="0 0 60 30" id="icon-page-end"><title>page-end</title><path transform="matrix(-.0499 .05322 .05914 .0409 1.47 3.933)" d="M303.87 235.71L-109.6 385.8l76.758-433.12z" stroke-linejoin="round" stroke="#000" stroke-linecap="round" stroke-width="6.941"/><path transform="matrix(-.0499 .05322 .05914 .0409 31.465 3.933)" d="M303.87 235.71L-109.6 385.8l76.758-433.12z" stroke-linejoin="round" stroke="#000" stroke-linecap="round" stroke-width="6.941"/></symbol><symbol viewBox="0 0 60 30" id="icon-page-start"><title>page-start</title><path transform="matrix(.0499 .05322 -.05914 .0409 58.53 3.933)" d="M303.87 235.71L-109.6 385.8l76.758-433.12z" stroke-linejoin="round" stroke="#000" stroke-linecap="round" stroke-width="6.941"/><path transform="matrix(.0499 .05322 -.05914 .0409 28.535 3.933)" d="M303.87 235.71L-109.6 385.8l76.758-433.12z" stroke-linejoin="round" stroke="#000" stroke-linecap="round" stroke-width="6.941"/></symbol><symbol viewBox="0 0 13 20" id="icon-prev"><title>prev</title><path d="M12.748.048c-.157-.08-.34-.057-.477.05L.146 9.645c-.106.083-.17.214-.17.35 0 .133.065.27.17.353l12.126 9.537c.082.062.183.096.282.096h.19c.158-.112.248-.225.248-.45V.437c0-.173-.097-.333-.252-.404z"/></symbol><symbol viewBox="0 0 15 20" id="icon-prev25"><title>prev25</title><path d="M14.75.048c-.158-.08-.342-.057-.478.05l-12.09 9.55c-.105.083-.17.215-.17.35 0 .133.067.27.17.353l12.09 9.553c.082.063.183.097.282.097l.196-.045c.154-.073.25-.23.25-.407V.452c0-.173-.096-.333-.25-.404z"/><path d="M3.334.038H.354C.158.038 0 .24 0 .486V19.51c0 .25.16.453.354.453h2.98c.195 0 .354-.205.354-.453V.487c0-.246-.16-.45-.354-.45z"/></symbol><symbol viewBox="0 0 17.802 17.802" id="icon-previous16"><title>previous16</title><path d="M15.363.042c-.14-.07-.303-.05-.424.043L4.162 8.587c-.094.077-.153.193-.153.313s.06.24.153.314l10.776 8.502c.07.057.16.086.248.086l.175-.04c.14-.063.225-.206.225-.36v-17c0-.153-.086-.295-.225-.36z"/><path d="M5.188.033H2.53c-.172 0-.315.182-.315.4V17.37c0 .22.143.403.315.403h2.657c.174 0 .315-.183.315-.403V.434c0-.22-.14-.4-.314-.4z"/></symbol><symbol viewBox="0 0 60 60" id="icon-slider-ctrl"><title>slider-ctrl</title><circle cy="30" cx="30" r="30" fill="#fff"/><circle cx="30" cy="30" r="24" fill="#003"/><circle cx="30" cy="30" r="18" fill="#fff"/></symbol><symbol viewBox="0 -10 600 30" id="icon-slider"><title>slider</title><rect stroke-linejoin="round" fill-rule="evenodd" rx="21.911" ry=".7" height=".7" width="590" stroke="#fff" y="511.62" x="47.594" stroke-width="10" fill="#003" transform="translate(-42.594 -506.22)"/></symbol><symbol viewBox="0 0 385 360" id="icon-table"><title>table</title><path d="M364.68 0H20.34C9.107 0 0 9.082 0 20.3v319.39c0 11.214 9.102 20.305 20.34 20.305h344.33c11.23.01 20.33-9.08 20.33-20.29v-319.4c.01-11.218-9.09-20.3-20.32-20.3z"/><path fill="#fff" d="M72.533 335.64H16.275v-47.718h56.258zM72.533 275.74H16.275v-60.908h56.258zM72.533 202.66H16.275v-56.845h56.258zM72.533 133.64H16.275V83.914h56.258zM151.84 335.64H84.732v-47.718h67.1v47.718zM151.84 275.74H84.732v-60.908h67.1v60.908zM151.84 202.66H84.732v-56.845h67.1v56.845zM151.84 133.64H84.732V83.914h67.1v49.726zM225.04 335.64h-61.006v-47.718h61.006zM225.04 275.74h-61.006v-60.908h61.006zM225.04 202.66h-61.006v-56.845h61.006zM225.04 133.64h-61.006V83.914h61.006zM294.18 335.64h-56.94v-47.718h56.94zM294.18 275.74h-56.94v-60.908h56.94zM294.18 202.66h-56.94v-56.845h56.94zM294.18 133.64h-56.94V83.914h56.94zM368.75 335.64h-62.358v-47.718h62.358zM368.75 275.74h-62.358v-60.908h62.358zM368.75 202.66h-62.358v-56.845h62.358zM368.75 133.64h-62.358V83.914h62.358z"/></symbol><symbol viewBox="0 0 28.265 28.265" id="icon-update17"><title>update17</title><path d="M14.133 28.265c-7.06 0-12.805-5.75-12.805-12.81 0-7.06 5.744-12.806 12.805-12.806.47 0 .943.026 1.414.08V.66c0-.267.164-.51.406-.612.252-.098.53-.043.723.148l4.537 4.547c.258.258.258.67 0 .932l-4.535 4.557c-.193.188-.473.246-.725.143-.242-.104-.406-.344-.406-.61V7.47c-.47-.086-.94-.125-1.414-.125-4.473 0-8.113 3.64-8.113 8.11 0 4.472 3.64 8.114 8.113 8.114s8.11-3.644 8.11-8.114c0-.363.296-.66.663-.66h3.37c.364 0 .66.297.66.66 0 7.06-5.747 12.81-12.803 12.81z"/></symbol></svg>