<svg xmlns="http://www.w3.org/2000/svg" viewBox="0 0 385 360"><path d="M364.68 0H20.34C9.107 0 0 9.082 0 20.3v319.39c0 11.214 9.102 20.305 20.34 20.305h344.33c11.23.01 20.33-9.08 20.33-20.29v-319.4c.01-11.218-9.09-20.3-20.32-20.3z"/><path fill="#fff" d="M72.533 335.64H16.275v-47.718h56.258zM72.533 275.74H16.275v-60.908h56.258zM72.533 202.66H16.275v-56.845h56.258zM72.533 133.64H16.275V83.914h56.258zM151.84 335.64H84.732v-47.718h67.1v47.718zM151.84 275.74H84.732v-60.908h67.1v60.908zM151.84 202.66H84.732v-56.845h67.1v56.845zM151.84 133.64H84.732V83.914h67.1v49.726zM225.04 335.64h-61.006v-47.718h61.006zM225.04 275.74h-61.006v-60.908h61.006zM225.04 202.66h-61.006v-56.845h61.006zM225.04 133.64h-61.006V83.914h61.006zM294.18 335.64h-56.94v-47.718h56.94zM294.18 275.74h-56.94v-60.908h56.94zM294.18 202.66h-56.94v-56.845h56.94zM294.18 133.64h-56.94V83.914h56.94zM368.75 335.64h-62.358v-47.718h62.358zM368.75 275.74h-62.358v-60.908h62.358zM368.75 202.66h-62.358v-56.845h62.358zM368.75 133.64h-62.358V83.914h62.358z"/></svg>