<svg xmlns="http://www.w3.org/2000/svg" viewBox="0 0 28.265 28.265"><path d="M14.133 28.265c-7.06 0-12.805-5.75-12.805-12.81 0-7.06 5.744-12.806 12.805-12.806.47 0 .943.024 1.414.08V.66c0-.267.164-.51.406-.612.252-.098.53-.043.723.148l4.537 4.547c.258.258.258.67 0 .932l-4.535 4.557c-.193.188-.473.246-.725.143-.242-.104-.406-.344-.406-.61V7.47c-.47-.086-.94-.125-1.414-.125-4.473 0-8.113 3.64-8.113 8.11 0 4.472 3.64 8.114 8.113 8.114s8.11-3.646 8.11-8.116c0-.363.296-.66.663-.66h3.37c.364 0 .66.297.66.66 0 7.06-5.747 12.81-12.803 12.81z"/></svg>