<?xml version="1.0" encoding="utf-8"?>
<svg xmlns="http://www.w3.org/2000/svg">
<symbol id="search" viewBox="0 0 60 60">
<g>
	<path d="M36.491,22h-25c-0.553,0-1,0.448-1,1s0.447,1,1,1h25c0.553,0,1-0.448,1-1S37.044,22,36.491,22z"/>
	<path d="M11.491,16h10c0.553,0,1-0.448,1-1s-0.447-1-1-1h-10c-0.553,0-1,0.448-1,1S10.938,16,11.491,16z"/>
	<path d="M37.491,31c0-0.552-0.447-1-1-1h-25c-0.553,0-1,0.448-1,1s0.447,1,1,1h25C37.044,32,37.491,31.552,37.491,31z"/>
	<path d="M29.491,39c0-0.552-0.447-1-1-1h-17c-0.553,0-1,0.448-1,1s0.447,1,1,1h17C29.044,40,29.491,39.552,29.491,39z"/>
	<path d="M11.491,46c-0.553,0-1,0.448-1,1s0.447,1,1,1h14c0.553,0,1-0.448,1-1s-0.447-1-1-1H11.491z"/>
	<path d="M2.491,2h29v14h14v15h2V14.586L32.905,0H0.491v60h37v-2h-35V2z M33.491,3.414L44.077,14H33.491V3.414z"/>
	<path d="M59.232,58.291l-5.97-6.244c1.746-1.919,2.82-4.458,2.82-7.251C56.083,38.843,51.24,34,45.287,34
		s-10.796,4.843-10.796,10.796s4.843,10.796,10.796,10.796c2.442,0,4.689-0.824,6.499-2.196l6.001,6.276
		c0.196,0.206,0.459,0.309,0.723,0.309c0.249,0,0.497-0.092,0.691-0.277C59.599,59.323,59.614,58.689,59.232,58.291z M36.491,44.796
		c0-4.85,3.946-8.796,8.796-8.796s8.796,3.946,8.796,8.796s-3.946,8.796-8.796,8.796S36.491,49.646,36.491,44.796z"/>
</g>
<g>
</g>
<g>
</g>
<g>
</g>
<g>
</g>
<g>
</g>
<g>
</g>
<g>
</g>
<g>
</g>
<g>
</g>
<g>
</g>
<g>
</g>
<g>
</g>
<g>
</g>
<g>
</g>
<g>
</g>

</symbol>
<symbol id="gears" viewBox="0 0 100 100"><rect x="0" y="0" width="100" height="100" fill="none" class="bk"/><g transform="translate(-20,-20)"><path d="M79.9,52.6C80,51.8,80,50.9,80,50s0-1.8-0.1-2.6l-5.1-0.4c-0.3-2.4-0.9-4.6-1.8-6.7l4.2-2.9c-0.7-1.6-1.6-3.1-2.6-4.5 L70,35c-1.4-1.9-3.1-3.5-4.9-4.9l2.2-4.6c-1.4-1-2.9-1.9-4.5-2.6L59.8,27c-2.1-0.9-4.4-1.5-6.7-1.8l-0.4-5.1C51.8,20,50.9,20,50,20 s-1.8,0-2.6,0.1l-0.4,5.1c-2.4,0.3-4.6,0.9-6.7,1.8l-2.9-4.1c-1.6,0.7-3.1,1.6-4.5,2.6l2.1,4.6c-1.9,1.4-3.5,3.1-5,4.9l-4.5-2.1 c-1,1.4-1.9,2.9-2.6,4.5l4.1,2.9c-0.9,2.1-1.5,4.4-1.8,6.8l-5,0.4C20,48.2,20,49.1,20,50s0,1.8,0.1,2.6l5,0.4 c0.3,2.4,0.9,4.7,1.8,6.8l-4.1,2.9c0.7,1.6,1.6,3.1,2.6,4.5l4.5-2.1c1.4,1.9,3.1,3.5,5,4.9l-2.1,4.6c1.4,1,2.9,1.9,4.5,2.6l2.9-4.1 c2.1,0.9,4.4,1.5,6.7,1.8l0.4,5.1C48.2,80,49.1,80,50,80s1.8,0,2.6-0.1l0.4-5.1c2.3-0.3,4.6-0.9,6.7-1.8l2.9,4.2 c1.6-0.7,3.1-1.6,4.5-2.6L65,69.9c1.9-1.4,3.5-3,4.9-4.9l4.6,2.2c1-1.4,1.9-2.9,2.6-4.5L73,59.8c0.9-2.1,1.5-4.4,1.8-6.7L79.9,52.6 z M50,65c-8.3,0-15-6.7-15-15c0-8.3,6.7-15,15-15s15,6.7,15,15C65,58.3,58.3,65,50,65z" fill="#8f7f59"><animateTransform attributeName="transform" type="rotate" from="90 50 50" to="0 50 50" dur=".5s" repeatCount="indefinite"/></path></g><g transform="translate(20,20) rotate(15 50 50)"><path d="M79.9,52.6C80,51.8,80,50.9,80,50s0-1.8-0.1-2.6l-5.1-0.4c-0.3-2.4-0.9-4.6-1.8-6.7l4.2-2.9c-0.7-1.6-1.6-3.1-2.6-4.5 L70,35c-1.4-1.9-3.1-3.5-4.9-4.9l2.2-4.6c-1.4-1-2.9-1.9-4.5-2.6L59.8,27c-2.1-0.9-4.4-1.5-6.7-1.8l-0.4-5.1C51.8,20,50.9,20,50,20 s-1.8,0-2.6,0.1l-0.4,5.1c-2.4,0.3-4.6,0.9-6.7,1.8l-2.9-4.1c-1.6,0.7-3.1,1.6-4.5,2.6l2.1,4.6c-1.9,1.4-3.5,3.1-5,4.9l-4.5-2.1 c-1,1.4-1.9,2.9-2.6,4.5l4.1,2.9c-0.9,2.1-1.5,4.4-1.8,6.8l-5,0.4C20,48.2,20,49.1,20,50s0,1.8,0.1,2.6l5,0.4 c0.3,2.4,0.9,4.7,1.8,6.8l-4.1,2.9c0.7,1.6,1.6,3.1,2.6,4.5l4.5-2.1c1.4,1.9,3.1,3.5,5,4.9l-2.1,4.6c1.4,1,2.9,1.9,4.5,2.6l2.9-4.1 c2.1,0.9,4.4,1.5,6.7,1.8l0.4,5.1C48.2,80,49.1,80,50,80s1.8,0,2.6-0.1l0.4-5.1c2.3-0.3,4.6-0.9,6.7-1.8l2.9,4.2 c1.6-0.7,3.1-1.6,4.5-2.6L65,69.9c1.9-1.4,3.5-3,4.9-4.9l4.6,2.2c1-1.4,1.9-2.9,2.6-4.5L73,59.8c0.9-2.1,1.5-4.4,1.8-6.7L79.9,52.6 z M50,65c-8.3,0-15-6.7-15-15c0-8.3,6.7-15,15-15s15,6.7,15,15C65,58.3,58.3,65,50,65z" fill="#9f9fab"><animateTransform attributeName="transform" type="rotate" from="0 50 50" to="90 50 50" dur=".5s" repeatCount="indefinite"/></path></g>
</symbol>
<symbol id="json" viewBox="0 0 58 58">
<g>
	<path d="M50.949,12.187l-1.361-1.361l-9.504-9.505c-0.001-0.001-0.001-0.001-0.002-0.001l-0.77-0.771
		C38.957,0.195,38.486,0,37.985,0H8.963C7.776,0,6.5,0.916,6.5,2.926V39v16.537V56c0,0.837,0.841,1.652,1.836,1.909
		c0.051,0.014,0.1,0.033,0.152,0.043C8.644,57.983,8.803,58,8.963,58h40.074c0.16,0,0.319-0.017,0.475-0.048
		c0.052-0.01,0.101-0.029,0.152-0.043C50.659,57.652,51.5,56.837,51.5,56v-0.463V39V13.978C51.5,13.211,51.407,12.644,50.949,12.187
		z M39.5,3.565L47.935,12H39.5V3.565z M8.963,56c-0.071,0-0.135-0.025-0.198-0.049C8.61,55.877,8.5,55.721,8.5,55.537V41h41v14.537
		c0,0.184-0.11,0.34-0.265,0.414C49.172,55.975,49.108,56,49.037,56H8.963z M8.5,39V2.926C8.5,2.709,8.533,2,8.963,2h28.595
		C37.525,2.126,37.5,2.256,37.5,2.391V13.78c-0.532-0.48-1.229-0.78-2-0.78c-0.553,0-1,0.448-1,1s0.447,1,1,1c0.552,0,1,0.449,1,1v4
		c0,1.2,0.542,2.266,1.382,3c-0.84,0.734-1.382,1.8-1.382,3v4c0,0.551-0.448,1-1,1c-0.553,0-1,0.448-1,1s0.447,1,1,1
		c1.654,0,3-1.346,3-3v-4c0-1.103,0.897-2,2-2c0.553,0,1-0.448,1-1s-0.447-1-1-1c-1.103,0-2-0.897-2-2v-4
		c0-0.771-0.301-1.468-0.78-2h11.389c0.135,0,0.265-0.025,0.391-0.058c0,0.015,0.001,0.021,0.001,0.036V39H8.5z"/>
	<path d="M16.354,51.43c-0.019,0.446-0.171,0.764-0.458,0.95s-0.672,0.28-1.155,0.28c-0.191,0-0.396-0.022-0.615-0.068
		s-0.429-0.098-0.629-0.157s-0.385-0.123-0.554-0.191s-0.299-0.135-0.39-0.198l-0.697,1.107c0.183,0.137,0.405,0.26,0.67,0.369
		s0.54,0.207,0.827,0.294s0.565,0.15,0.834,0.191s0.504,0.062,0.704,0.062c0.401,0,0.791-0.039,1.169-0.116
		c0.378-0.077,0.713-0.214,1.005-0.41s0.524-0.456,0.697-0.779s0.26-0.723,0.26-1.196v-7.848h-1.668V51.43z"/>
	<path d="M25.083,49.064c-0.314-0.228-0.654-0.422-1.019-0.581s-0.702-0.323-1.012-0.492s-0.569-0.364-0.779-0.588
		s-0.314-0.518-0.314-0.882c0-0.146,0.036-0.299,0.109-0.458s0.173-0.303,0.301-0.431s0.273-0.234,0.438-0.321
		s0.337-0.139,0.52-0.157c0.328-0.027,0.597-0.032,0.807-0.014s0.378,0.05,0.506,0.096s0.226,0.091,0.294,0.137
		s0.13,0.082,0.185,0.109c0.009-0.009,0.036-0.055,0.082-0.137s0.101-0.185,0.164-0.308s0.132-0.255,0.205-0.396
		s0.137-0.271,0.191-0.39c-0.265-0.173-0.61-0.299-1.039-0.376s-0.853-0.116-1.271-0.116c-0.41,0-0.8,0.063-1.169,0.191
		s-0.692,0.313-0.971,0.554s-0.499,0.535-0.663,0.882S20.4,46.13,20.4,46.576c0,0.492,0.104,0.902,0.314,1.23
		s0.474,0.613,0.793,0.854s0.661,0.451,1.025,0.629s0.704,0.355,1.019,0.533s0.576,0.376,0.786,0.595s0.314,0.483,0.314,0.793
		c0,0.511-0.148,0.896-0.444,1.155s-0.723,0.39-1.278,0.39c-0.183,0-0.378-0.019-0.588-0.055s-0.419-0.084-0.629-0.144
		s-0.412-0.123-0.608-0.191s-0.357-0.139-0.485-0.212l-0.287,1.176c0.155,0.137,0.34,0.253,0.554,0.349s0.439,0.171,0.677,0.226
		c0.237,0.055,0.472,0.094,0.704,0.116s0.458,0.034,0.677,0.034c0.511,0,0.966-0.077,1.367-0.232s0.738-0.362,1.012-0.622
		s0.485-0.561,0.636-0.902s0.226-0.695,0.226-1.06c0-0.538-0.104-0.978-0.314-1.319S25.397,49.292,25.083,49.064z"/>
	<path d="M34.872,45.072c-0.378-0.429-0.82-0.754-1.326-0.978s-1.06-0.335-1.661-0.335s-1.155,0.111-1.661,0.335
		s-0.948,0.549-1.326,0.978s-0.675,0.964-0.889,1.606s-0.321,1.388-0.321,2.235s0.107,1.595,0.321,2.242s0.511,1.185,0.889,1.613
		s0.82,0.752,1.326,0.971s1.06,0.328,1.661,0.328s1.155-0.109,1.661-0.328s0.948-0.542,1.326-0.971s0.675-0.966,0.889-1.613
		s0.321-1.395,0.321-2.242s-0.107-1.593-0.321-2.235S35.25,45.501,34.872,45.072z M34.195,50.698
		c-0.137,0.487-0.326,0.882-0.567,1.183s-0.515,0.518-0.82,0.649s-0.627,0.198-0.964,0.198c-0.328,0-0.641-0.07-0.937-0.212
		s-0.561-0.364-0.793-0.67s-0.415-0.699-0.547-1.183s-0.203-1.066-0.212-1.75c0.009-0.702,0.082-1.294,0.219-1.777
		c0.137-0.483,0.326-0.877,0.567-1.183s0.515-0.521,0.82-0.649s0.627-0.191,0.964-0.191c0.328,0,0.641,0.068,0.937,0.205
		s0.561,0.36,0.793,0.67s0.415,0.704,0.547,1.183s0.203,1.06,0.212,1.743C34.405,49.616,34.332,50.211,34.195,50.698z"/>
	<polygon points="44.012,50.869 40.061,43.924 38.393,43.924 38.393,54 40.061,54 40.061,47.055 44.012,54 45.68,54 45.68,43.924 
		44.012,43.924 	"/>
	<path d="M20.5,20v-4c0-0.551,0.448-1,1-1c0.553,0,1-0.448,1-1s-0.447-1-1-1c-1.654,0-3,1.346-3,3v4c0,1.103-0.897,2-2,2
		c-0.553,0-1,0.448-1,1s0.447,1,1,1c1.103,0,2,0.897,2,2v4c0,1.654,1.346,3,3,3c0.553,0,1-0.448,1-1s-0.447-1-1-1
		c-0.552,0-1-0.449-1-1v-4c0-1.2-0.542-2.266-1.382-3C19.958,22.266,20.5,21.2,20.5,20z"/>
	<circle cx="28.5" cy="19.5" r="1.5"/>
	<path d="M28.5,25c-0.553,0-1,0.448-1,1v3c0,0.552,0.447,1,1,1s1-0.448,1-1v-3C29.5,25.448,29.053,25,28.5,25z"/>
</g>
<g>
</g>
<g>
</g>
<g>
</g>
<g>
</g>
<g>
</g>
<g>
</g>
<g>
</g>
<g>
</g>
<g>
</g>
<g>
</g>
<g>
</g>
<g>
</g>
<g>
</g>
<g>
</g>
<g>
</g>

</symbol>
<symbol id="csv" viewBox="0 0 58 58">
<g>
	<path d="M50.95,12.187l-0.771-0.771L40.084,1.321L39.313,0.55C38.964,0.201,38.48,0,37.985,0H8.963C7.777,0,6.5,0.916,6.5,2.926V39
		v16.537V56c0,0.837,0.842,1.653,1.838,1.91c0.05,0.013,0.098,0.032,0.15,0.042C8.644,57.983,8.803,58,8.963,58h40.074
		c0.16,0,0.319-0.017,0.475-0.048c0.052-0.01,0.1-0.029,0.15-0.042C50.658,57.653,51.5,56.837,51.5,56v-0.463V39V13.978
		C51.5,13.211,51.408,12.645,50.95,12.187z M47.935,12H39.5V3.565L47.935,12z M8.963,56c-0.071,0-0.135-0.026-0.198-0.049
		C8.609,55.877,8.5,55.721,8.5,55.537V41h41v14.537c0,0.184-0.109,0.339-0.265,0.414C49.172,55.974,49.108,56,49.037,56H8.963z
		 M8.5,39V2.926C8.5,2.709,8.533,2,8.963,2h28.595C37.525,2.126,37.5,2.256,37.5,2.391V14h11.609c0.135,0,0.264-0.025,0.39-0.058
		c0,0.015,0.001,0.021,0.001,0.036V39H8.5z"/>
	<path d="M18.034,45.954c0.241-0.306,0.515-0.521,0.82-0.649c0.305-0.128,0.626-0.191,0.964-0.191c0.301,0,0.59,0.06,0.868,0.178
		c0.278,0.118,0.531,0.31,0.759,0.574l1.135-1.012c-0.374-0.364-0.798-0.638-1.271-0.82c-0.474-0.183-0.984-0.273-1.531-0.273
		c-0.593,0-1.144,0.111-1.654,0.335c-0.511,0.224-0.955,0.549-1.333,0.978c-0.378,0.429-0.675,0.964-0.889,1.606
		c-0.214,0.643-0.321,1.388-0.321,2.235s0.107,1.595,0.321,2.242c0.214,0.647,0.51,1.185,0.889,1.613
		c0.378,0.429,0.82,0.752,1.326,0.971s1.06,0.328,1.661,0.328c0.547,0,1.057-0.091,1.531-0.273c0.474-0.183,0.897-0.456,1.271-0.82
		l-1.135-0.998c-0.237,0.265-0.499,0.456-0.786,0.574s-0.595,0.178-0.923,0.178s-0.641-0.07-0.937-0.212
		c-0.296-0.142-0.561-0.364-0.793-0.67s-0.415-0.699-0.547-1.183c-0.132-0.483-0.203-1.066-0.212-1.75
		c0.009-0.702,0.082-1.294,0.219-1.777S17.792,46.26,18.034,45.954z"/>
	<path d="M29.532,49.064c-0.314-0.228-0.654-0.422-1.019-0.581c-0.365-0.159-0.702-0.323-1.012-0.492
		c-0.31-0.169-0.57-0.364-0.779-0.588c-0.21-0.224-0.314-0.518-0.314-0.882c0-0.146,0.036-0.299,0.109-0.458
		c0.073-0.159,0.173-0.303,0.301-0.431c0.127-0.128,0.273-0.234,0.438-0.321s0.337-0.139,0.52-0.157
		c0.328-0.027,0.597-0.032,0.807-0.014c0.209,0.019,0.378,0.05,0.506,0.096c0.127,0.046,0.226,0.091,0.294,0.137
		s0.13,0.082,0.185,0.109c0.009-0.009,0.036-0.055,0.082-0.137c0.045-0.082,0.1-0.185,0.164-0.308
		c0.063-0.123,0.132-0.255,0.205-0.396c0.073-0.142,0.137-0.271,0.191-0.39c-0.265-0.173-0.611-0.299-1.039-0.376
		c-0.429-0.077-0.853-0.116-1.271-0.116c-0.41,0-0.8,0.063-1.169,0.191s-0.693,0.313-0.971,0.554
		c-0.278,0.241-0.499,0.535-0.663,0.882s-0.246,0.743-0.246,1.189c0,0.492,0.104,0.902,0.314,1.23
		c0.209,0.328,0.474,0.613,0.793,0.854c0.319,0.241,0.661,0.451,1.025,0.629c0.364,0.178,0.704,0.355,1.019,0.533
		s0.576,0.376,0.786,0.595c0.209,0.219,0.314,0.483,0.314,0.793c0,0.511-0.148,0.896-0.444,1.155c-0.296,0.26-0.723,0.39-1.278,0.39
		c-0.183,0-0.378-0.019-0.588-0.055c-0.21-0.036-0.419-0.084-0.629-0.144c-0.21-0.06-0.413-0.123-0.608-0.191
		c-0.196-0.068-0.358-0.139-0.485-0.212l-0.287,1.176c0.155,0.137,0.339,0.253,0.554,0.349c0.214,0.096,0.439,0.171,0.677,0.226
		c0.237,0.055,0.472,0.094,0.704,0.116s0.458,0.034,0.677,0.034c0.51,0,0.966-0.077,1.367-0.232
		c0.401-0.155,0.738-0.362,1.012-0.622s0.485-0.561,0.636-0.902s0.226-0.695,0.226-1.06c0-0.538-0.105-0.978-0.314-1.319
		C30.108,49.577,29.847,49.292,29.532,49.064z"/>
	<polygon points="36.115,52.619 33.777,43.924 31.904,43.924 35.035,54.055 37.168,54.055 40.449,43.924 38.59,43.924 	"/>
	<path d="M24.5,13h-12v4v2v2v2v2v2v2v2v4h10h2h21v-4v-2v-2v-2v-2v-2v-4h-21V13z M14.5,19h8v2h-8V19z M14.5,23h8v2h-8V23z M14.5,27h8
		v2h-8V27z M22.5,33h-8v-2h8V33z M43.5,33h-19v-2h19V33z M43.5,29h-19v-2h19V29z M43.5,25h-19v-2h19V25z M43.5,19v2h-19v-2H43.5z
		 M14.5,17v-2h8v2H14.5z"/>
</g>
<g>
</g>
<g>
</g>
<g>
</g>
<g>
</g>
<g>
</g>
<g>
</g>
<g>
</g>
<g>
</g>
<g>
</g>
<g>
</g>
<g>
</g>
<g>
</g>
<g>
</g>
<g>
</g>
<g>
</g>

</symbol>
<symbol id="file" viewBox="0 0 60 60">
<g>
	<path d="M42.5,22h-25c-0.552,0-1,0.447-1,1s0.448,1,1,1h25c0.552,0,1-0.447,1-1S43.052,22,42.5,22z"/>
	<path d="M17.5,16h10c0.552,0,1-0.447,1-1s-0.448-1-1-1h-10c-0.552,0-1,0.447-1,1S16.948,16,17.5,16z"/>
	<path d="M42.5,30h-25c-0.552,0-1,0.447-1,1s0.448,1,1,1h25c0.552,0,1-0.447,1-1S43.052,30,42.5,30z"/>
	<path d="M42.5,38h-25c-0.552,0-1,0.447-1,1s0.448,1,1,1h25c0.552,0,1-0.447,1-1S43.052,38,42.5,38z"/>
	<path d="M42.5,46h-25c-0.552,0-1,0.447-1,1s0.448,1,1,1h25c0.552,0,1-0.447,1-1S43.052,46,42.5,46z"/>
	<path d="M38.914,0H6.5v60h47V14.586L38.914,0z M39.5,3.414L50.086,14H39.5V3.414z M8.5,58V2h29v14h14v42H8.5z"/>
</g>
<g>
</g>
<g>
</g>
<g>
</g>
<g>
</g>
<g>
</g>
<g>
</g>
<g>
</g>
<g>
</g>
<g>
</g>
<g>
</g>
<g>
</g>
<g>
</g>
<g>
</g>
<g>
</g>
<g>
</g>

</symbol></svg>